<?xml version="1.0" encoding="UTF-8" standalone="no"?>
<!DOCTYPE svg PUBLIC "-//W3C//DTD SVG 1.1//EN" "http://www.w3.org/Graphics/SVG/1.1/DTD/svg11.dtd">
<svg width="100.00" height="100.00" viewBox="0.00 0.00 100.00 100.00" xmlns="http://www.w3.org/2000/svg" xmlns:xlink="http://www.w3.org/1999/xlink">
<g stroke-linecap="round" id="レイヤー_1">
<path d="M50.13,1.10 C53.24,1.12 60.91,2.35 64.49,3.42 C67.91,4.47 74.57,7.52 77.52,9.59 C80.54,11.75 85.88,16.75 88.20,19.57 C90.79,22.76 93.91,28.16 95.38,31.99 C96.67,35.41 98.33,42.53 98.69,46.22 C99.02,49.81 98.33,57.09 97.53,60.57 C96.67,64.21 93.91,71.46 92.36,74.16 C90.79,76.85 85.88,82.87 83.16,85.43 C80.54,87.86 74.57,92.10 71.30,93.61 C67.91,95.14 60.91,97.27 57.31,97.86 C53.24,98.50 47.01,98.50 42.94,97.86 C39.34,97.27 32.34,95.14 28.95,93.61 C25.68,92.10 19.71,87.86 17.09,85.43 C14.37,82.87 9.46,76.85 7.89,74.16 C6.35,71.46 3.58,64.21 2.72,60.57 C1.92,57.09 1.24,49.81 1.56,46.22 C1.92,42.53 3.58,35.41 4.87,31.99 C6.35,28.16 9.46,22.76 12.05,19.57 C14.37,16.75 19.71,11.75 22.74,9.59 C25.68,7.52 32.34,4.47 35.76,3.42 C39.34,2.35 47.01,1.12 50.13,1.10 Z" fill="#fff" stroke="rgb(255, 255, 255)" stroke-width="0.10" stroke-opacity="1.00" stroke-linejoin="round"/>
<path d="M16.59,26.82 Q50.01,26.82 83.42,26.82 Q84.95,26.82 84.95,28.31 Q84.95,50.02 84.95,71.73 Q84.95,73.22 83.42,73.22 Q50.01,73.22 16.59,73.22 Q15.07,73.22 15.07,71.73 Q15.07,50.02 15.07,28.31 Q15.07,26.82 16.59,26.82 Z" fill="#294a6a" stroke="rgb(41, 74, 106)" stroke-width="0.10" stroke-opacity="1.00" stroke-linejoin="round"/>
<path d="M16.73,29.88 C16.73,29.88 50.02,49.26 50.02,49.26 C50.02,49.26 83.28,29.98 83.28,29.98 C83.28,29.98 81.99,28.44 81.99,28.44 C81.99,28.44 50.08,46.93 50.08,46.93 C50.08,46.93 18.05,28.46 18.05,28.46 C18.05,28.46 16.73,29.88 16.73,29.88 Z" fill="#fff" stroke="rgb(255, 255, 255)" stroke-width="1.00" stroke-opacity="1.00" stroke-linejoin="miter"/>
</g>
</svg>
