<?xml version="1.0" encoding="UTF-8" standalone="no"?>
<!DOCTYPE svg PUBLIC "-//W3C//DTD SVG 1.1//EN" "http://www.w3.org/Graphics/SVG/1.1/DTD/svg11.dtd">
<svg width="100.00" height="100.00" viewBox="0.00 0.00 100.00 100.00" xmlns="http://www.w3.org/2000/svg" xmlns:xlink="http://www.w3.org/1999/xlink">
<g stroke-linecap="round" id="レイヤー_1">
<path d="M49.48,2.54 C52.74,2.56 60.47,3.81 64.11,4.92 C67.63,6.02 74.25,9.52 77.24,11.66 C80.60,14.10 85.21,18.70 87.65,22.06 C89.79,25.06 93.28,31.68 94.39,35.19 C95.49,38.83 96.75,46.57 96.76,49.82 C96.75,53.07 95.49,60.81 94.39,64.45 C93.28,67.96 89.79,74.59 87.65,77.58 C85.21,80.94 80.60,85.54 77.24,87.99 C74.25,90.13 67.63,93.62 64.11,94.72 C60.47,95.83 52.74,97.09 49.48,97.10 C46.23,97.09 38.49,95.83 34.86,94.72 C31.34,93.62 24.72,90.13 21.72,87.99 C18.36,85.54 13.76,80.94 11.32,77.58 C9.18,74.59 5.68,67.96 4.58,64.45 C3.47,60.81 2.22,53.07 2.20,49.82 C2.22,46.57 3.47,38.83 4.58,35.19 C5.68,31.68 9.18,25.06 11.32,22.06 C13.76,18.70 18.36,14.10 21.72,11.66 C24.72,9.52 31.34,6.02 34.86,4.92 C38.49,3.81 46.23,2.56 49.48,2.54 Z" fill="#ff7641" stroke="rgb(255, 115, 65)" stroke-width="3.00" stroke-opacity="1.00" stroke-linejoin="round"/>
<path d="M15.77,27.50 Q50.05,27.50 84.34,27.50 Q84.82,27.50 84.82,27.98 Q84.82,50.16 84.82,72.34 Q84.82,72.81 84.34,72.81 Q50.05,72.81 15.77,72.81 Q15.29,72.81 15.29,72.34 Q15.29,50.16 15.29,27.98 Q15.29,27.50 15.77,27.50 Z" fill="#fff" stroke="rgb(255, 255, 255)" stroke-width="4.00" stroke-opacity="1.00" stroke-linejoin="round"/>
<path d="M17.42,29.78 L49.57,51.32" fill="none" stroke="rgb(255, 115, 65)" stroke-width="4.00" stroke-opacity="1.00" stroke-linejoin="round"/>
<path d="M50.52,51.16 L82.36,29.93" fill="none" stroke="rgb(255, 115, 65)" stroke-width="4.00" stroke-opacity="1.00" stroke-linejoin="round"/>
</g>
</svg>
