<?xml version="1.0" encoding="UTF-8" standalone="no"?>
<!DOCTYPE svg PUBLIC "-//W3C//DTD SVG 1.1//EN" "http://www.w3.org/Graphics/SVG/1.1/DTD/svg11.dtd">
<svg width="100.00" height="100.00" viewBox="0.00 0.00 100.00 100.00" xmlns="http://www.w3.org/2000/svg" xmlns:xlink="http://www.w3.org/1999/xlink">
<g stroke-linecap="round" id="レイヤー_2">
<path d="M50.13,1.10 C53.24,1.12 60.91,2.35 64.49,3.42 C67.91,4.47 74.57,7.52 77.52,9.59 C80.54,11.75 85.88,16.75 88.20,19.57 C90.79,22.76 93.91,28.16 95.38,31.99 C96.67,35.41 98.33,42.53 98.69,46.22 C99.02,49.81 98.33,57.09 97.53,60.57 C96.67,64.21 93.91,71.46 92.36,74.16 C90.79,76.85 85.88,82.87 83.16,85.43 C80.54,87.86 74.57,92.10 71.30,93.61 C67.91,95.14 60.91,97.27 57.31,97.86 C53.24,98.50 47.01,98.50 42.94,97.86 C39.34,97.27 32.34,95.14 28.95,93.61 C25.68,92.10 19.71,87.86 17.09,85.43 C14.37,82.87 9.46,76.85 7.89,74.16 C6.35,71.46 3.58,64.21 2.72,60.57 C1.92,57.09 1.24,49.81 1.56,46.22 C1.92,42.53 3.58,35.41 4.87,31.99 C6.35,28.16 9.46,22.76 12.05,19.57 C14.37,16.75 19.71,11.75 22.74,9.59 C25.68,7.52 32.34,4.47 35.76,3.42 C39.34,2.35 47.01,1.12 50.13,1.10 Z" fill="#fff" stroke="rgb(255, 255, 255)" stroke-width="0.10" stroke-opacity="1.00" stroke-linejoin="round"/>
<path d="M25.43,41.40 C25.43,41.40 63.92,21.04 63.92,21.04 C65.05,23.54 68.70,31.64 69.53,33.88 C70.99,37.89 72.61,46.60 72.68,50.76 C72.71,53.09 72.17,61.63 72.00,64.27 C72.00,64.27 28.90,60.17 28.90,60.17 C28.90,60.17 33.97,79.80 33.97,79.80 C33.97,79.80 24.31,82.26 24.31,82.26 C24.31,82.26 19.07,61.07 19.07,61.07 C17.89,60.84 14.68,60.19 13.86,59.95 C12.25,59.44 9.81,57.03 9.37,55.27 C8.98,53.51 10.10,50.28 11.32,49.12 C11.94,48.56 14.55,46.58 15.49,45.86 C15.49,45.86 25.43,41.40 25.43,41.40 Z" fill="#294a6a" stroke="rgb(41, 74, 106)" stroke-width="0.10" stroke-opacity="1.00" stroke-linejoin="miter"/>
<path d="M62.70,23.59 C63.01,34.10 63.91,45.04 66.72,53.06 C67.14,54.24 70.06,61.68 70.51,62.83 C70.51,62.83 68.11,63.41 68.11,63.41 C64.33,53.92 61.19,44.38 60.65,36.37 C60.51,34.20 60.44,26.18 60.42,23.70 C60.42,23.70 62.70,23.59 62.70,23.59 Z" fill="#fff" stroke="rgb(255, 255, 255)" stroke-width="0.10" stroke-opacity="1.00" stroke-linejoin="miter"/>
<path d="M25.63,40.99 L15.60,46.15 L18.55,60.85 L29.05,59.91 L25.63,40.99 Z" fill="#fff" stroke="rgb(255, 255, 255)" stroke-width="0.10" stroke-opacity="1.00" stroke-linejoin="miter"/>
<path d="M91.61,39.95 Q91.61,39.95 91.61,39.95 Q91.93,40.92 90.07,41.03 Q85.61,41.30 81.15,41.56 Q79.29,41.67 78.97,40.71 Q78.97,40.71 78.97,40.71 Q78.65,39.74 80.51,39.63 Q84.97,39.36 89.42,39.10 Q91.29,38.98 91.61,39.95 Z" fill="#294a6a" stroke="rgb(41, 74, 106)" stroke-width="0.10" stroke-opacity="1.00" stroke-linejoin="round"/>
<path d="M80.27,16.26 Q80.27,16.26 80.27,16.26 Q81.15,16.94 79.85,18.08 Q76.75,20.82 73.65,23.57 Q72.36,24.71 71.49,24.03 Q71.49,24.03 71.49,24.03 Q70.61,23.35 71.91,22.21 Q75.01,19.47 78.11,16.73 Q79.40,15.58 80.27,16.26 Z" fill="#294a6a" stroke="rgb(41, 74, 106)" stroke-width="0.10" stroke-opacity="1.00" stroke-linejoin="round"/>
<path d="M89.42,63.41 Q89.42,63.41 89.42,63.41 Q89.08,64.48 87.53,63.68 Q83.82,61.75 80.11,59.83 Q78.56,59.02 78.91,57.95 Q78.91,57.95 78.91,57.95 Q79.25,56.88 80.80,57.68 Q84.51,59.61 88.22,61.53 Q89.77,62.34 89.42,63.41 Z" fill="#294a6a" stroke="rgb(41, 74, 106)" stroke-width="0.10" stroke-opacity="1.00" stroke-linejoin="round"/>
</g>
</svg>
