<?xml version="1.0" encoding="UTF-8" standalone="no"?>
<!DOCTYPE svg PUBLIC "-//W3C//DTD SVG 1.1//EN" "http://www.w3.org/Graphics/SVG/1.1/DTD/svg11.dtd">
<svg width="100.00" height="100.00" viewBox="0.00 0.00 100.00 100.00" xmlns="http://www.w3.org/2000/svg" xmlns:xlink="http://www.w3.org/1999/xlink">
<g stroke-linecap="round" id="レイヤー_6">
<path d="M49.74,1.86 C53.01,1.88 60.79,3.14 64.44,4.25 C67.98,5.36 74.63,8.88 77.65,11.03 C81.03,13.48 85.65,18.11 88.11,21.49 C90.26,24.50 93.77,31.16 94.88,34.69 C96.00,38.35 97.26,46.13 97.27,49.40 C97.26,52.67 96.00,60.45 94.88,64.10 C93.77,67.64 90.26,74.29 88.11,77.31 C85.65,80.69 81.03,85.31 77.65,87.77 C74.63,89.92 67.98,93.43 64.44,94.54 C60.79,95.66 53.01,96.92 49.74,96.93 C46.47,96.92 38.69,95.66 35.03,94.54 C31.50,93.43 24.84,89.92 21.83,87.77 C18.45,85.31 13.82,80.69 11.37,77.31 C9.21,74.29 5.70,67.64 4.59,64.10 C3.48,60.45 2.22,52.67 2.20,49.40 C2.22,46.13 3.48,38.35 4.59,34.69 C5.70,31.16 9.21,24.50 11.37,21.49 C13.82,18.11 18.45,13.48 21.83,11.03 C24.84,8.88 31.50,5.36 35.03,4.25 C38.69,3.14 46.47,1.88 49.74,1.86 Z" fill="#ff7641" stroke="rgb(255, 115, 65)" stroke-width="3.00" stroke-opacity="1.00" stroke-linejoin="round"/>
<path d="M63.21,21.52 L25.08,41.52" fill="none" stroke="rgb(255, 255, 255)" stroke-width="4.00" stroke-opacity="1.00" stroke-linejoin="round"/>
<path d="M70.50,64.23 L27.79,60.16" fill="none" stroke="rgb(255, 255, 255)" stroke-width="4.00" stroke-opacity="1.00" stroke-linejoin="round"/>
<path d="M71.85,63.72 Q76.09,40.16 63.38,20.67" fill="none" stroke="rgb(255, 255, 255)" stroke-width="4.00" stroke-opacity="1.00" stroke-linejoin="round"/>
<path d="M71.85,64.40 Q63.72,41.86 63.55,21.69" fill="none" stroke="rgb(255, 255, 255)" stroke-width="4.00" stroke-opacity="1.00" stroke-linejoin="round"/>
<path d="M25.59,41.69 L29.32,60.16" fill="none" stroke="rgb(255, 255, 255)" stroke-width="4.00" stroke-opacity="1.00" stroke-linejoin="round"/>
<path d="M24.74,41.52 L16.61,45.42" fill="none" stroke="rgb(255, 255, 255)" stroke-width="4.00" stroke-opacity="1.00" stroke-linejoin="round"/>
<path d="M15.42,46.43 L18.47,60.67" fill="none" stroke="rgb(255, 255, 255)" stroke-width="4.00" stroke-opacity="1.00" stroke-linejoin="round"/>
<path d="M19.66,60.84 L28.98,60.33" fill="none" stroke="rgb(255, 255, 255)" stroke-width="4.00" stroke-opacity="1.00" stroke-linejoin="round"/>
<path d="M18.64,60.84 Q0.68,55.24 16.10,45.75" fill="none" stroke="rgb(255, 255, 255)" stroke-width="4.00" stroke-opacity="1.00" stroke-linejoin="round"/>
<path d="M72.19,23.57 L79.31,17.47" fill="none" stroke="rgb(255, 255, 255)" stroke-width="4.00" stroke-opacity="1.00" stroke-linejoin="round"/>
<path d="M80.10,40.99 L90.44,40.15" fill="none" stroke="rgb(255, 255, 255)" stroke-width="4.00" stroke-opacity="1.00" stroke-linejoin="round"/>
<path d="M79.10,57.94 L88.93,62.68" fill="none" stroke="rgb(255, 255, 255)" stroke-width="4.00" stroke-opacity="1.00" stroke-linejoin="round"/>
<path d="M20.59,62.55 Q24.31,61.63 28.03,60.72 Q29.00,60.48 29.24,61.45 Q31.38,70.19 33.53,78.93 Q33.76,79.90 32.79,80.14 Q29.07,81.05 25.35,81.97 Q24.38,82.20 24.14,81.23 Q22.00,72.49 19.85,63.76 Q19.62,62.78 20.59,62.55 Z" fill="none" stroke="rgb(255, 255, 255)" stroke-width="4.00" stroke-opacity="1.00" stroke-linejoin="round"/>
<path d="M22.71,65.07 L26.44,79.82" fill="none" stroke="rgb(255, 255, 255)" stroke-width="4.00" stroke-opacity="1.00" stroke-linejoin="round"/>
<path d="M26.44,68.12 L29.49,79.65" fill="none" stroke="rgb(255, 255, 255)" stroke-width="4.00" stroke-opacity="1.00" stroke-linejoin="round"/>
<path d="M31.86,78.80 L27.62,65.41" fill="none" stroke="rgb(255, 255, 255)" stroke-width="4.00" stroke-opacity="1.00" stroke-linejoin="round"/>
<path d="M27.28,81.34 L24.23,63.72" fill="none" stroke="rgb(255, 255, 255)" stroke-width="4.00" stroke-opacity="1.00" stroke-linejoin="round"/>
<path d="M24.74,75.58 L22.20,63.55" fill="none" stroke="rgb(255, 255, 255)" stroke-width="4.00" stroke-opacity="1.00" stroke-linejoin="round"/>
<path d="M21.86,64.23 L27.79,63.55" fill="none" stroke="rgb(255, 255, 255)" stroke-width="4.00" stroke-opacity="1.00" stroke-linejoin="round"/>
<path d="M24.74,69.48 L28.81,62.53" fill="none" stroke="rgb(255, 255, 255)" stroke-width="4.00" stroke-opacity="1.00" stroke-linejoin="round"/>
<path d="M14.23,46.77 Q7.46,52.87 15.25,58.97" fill="none" stroke="rgb(255, 255, 255)" stroke-width="4.00" stroke-opacity="1.00" stroke-linejoin="round"/>
<path d="M14.40,47.28 Q11.69,53.04 15.76,58.63" fill="none" stroke="rgb(255, 255, 255)" stroke-width="4.00" stroke-opacity="1.00" stroke-linejoin="round"/>
<path d="M15.25,46.43 Q14.40,52.36 16.27,57.62" fill="none" stroke="rgb(255, 255, 255)" stroke-width="4.00" stroke-opacity="1.00" stroke-linejoin="round"/>
<path d="M65.92,63.89 Q59.14,44.40 58.13,25.25" fill="none" stroke="rgb(255, 255, 255)" stroke-width="4.00" stroke-opacity="1.00" stroke-linejoin="round"/>
<path d="M37.28,44.74 C37.28,44.74 37.45,44.40 37.45,44.40 C37.45,44.40 39.15,52.45 39.15,52.45 C39.51,52.64 45.59,52.70 48.13,53.89 C48.18,53.91 53.79,55.08 53.89,55.16" fill="none" stroke="rgb(255, 255, 255)" stroke-width="11.86" stroke-opacity="1.00" stroke-linejoin="round"/>
<path d="M33.21,46.43 C33.21,46.43 34.40,50.50 34.40,50.50 C34.40,50.50 34.74,54.99 34.74,54.99 C34.74,54.99 34.91,55.41 34.91,55.41" fill="none" stroke="rgb(255, 255, 255)" stroke-width="11.86" stroke-opacity="1.00" stroke-linejoin="round"/>
<path d="M34.57,54.06 C34.49,54.18 34.43,54.35 34.40,54.57 C34.35,54.92 34.29,55.49 34.23,56.26 C34.23,56.29 34.25,56.20 34.26,56.16" fill="none" stroke="rgb(255, 255, 255)" stroke-width="11.86" stroke-opacity="1.00" stroke-linejoin="round"/>
<path d="M35.42,55.92 C40.25,55.94 44.13,57.14 47.36,57.11 C48.08,57.10 55.56,57.11 57.79,57.11 C57.79,57.11 58.46,57.45 58.46,57.45" fill="none" stroke="rgb(255, 255, 255)" stroke-width="11.86" stroke-opacity="1.00" stroke-linejoin="round"/>
<path d="M62.36,59.14 C62.36,59.14 63.21,60.92 63.21,60.92 C63.21,60.92 62.53,57.11 62.53,57.11 C62.53,57.11 64.56,61.26 64.56,61.26 C64.48,61.33 61.70,60.16 61.60,60.16 C60.83,60.13 60.04,59.96 59.82,59.99 C59.82,59.99 62.62,61.34 62.62,61.34 C62.59,61.34 59.80,61.37 59.65,61.34 C59.09,61.24 58.66,60.67 58.46,60.37" fill="none" stroke="rgb(255, 255, 255)" stroke-width="2.39" stroke-opacity="1.00" stroke-linejoin="round"/>
<path d="M61.68,60.50 C61.68,60.50 61.85,60.50 61.85,60.50 C61.88,60.19 59.51,49.86 59.31,48.47 C59.14,47.45 58.13,41.94 58.13,41.69 C58.13,41.69 58.13,41.86 58.13,41.86" fill="none" stroke="rgb(255, 255, 255)" stroke-width="2.39" stroke-opacity="1.00" stroke-linejoin="round"/>
<path d="M61.01,53.38 C61.01,53.38 61.18,53.55 61.18,53.55 C61.36,53.61 59.11,44.19 59.06,44.06 C58.99,43.88 58.38,41.81 58.29,41.60 C58.29,41.60 58.13,41.52 58.13,41.52" fill="none" stroke="rgb(255, 255, 255)" stroke-width="2.39" stroke-opacity="1.00" stroke-linejoin="round"/>
<path d="M55.07,50.16 C55.52,50.28 53.58,44.99 52.53,37.11 C52.52,37.02 52.46,36.91 52.36,36.77" fill="none" stroke="rgb(255, 255, 255)" stroke-width="14.25" stroke-opacity="1.00" stroke-linejoin="round"/>
<path d="M49.14,41.86 C48.88,42.05 48.52,42.31 48.38,42.37 C48.15,42.45 41.83,44.27 37.96,44.23 C37.91,43.02 40.11,42.21 41.60,40.92 C43.54,39.95 45.70,37.38 46.35,37.11 C46.35,37.11 47.11,36.26 47.11,36.26" fill="none" stroke="rgb(255, 255, 255)" stroke-width="14.25" stroke-opacity="1.00" stroke-linejoin="round"/>
<path d="M33.55,42.53 C33.55,42.53 33.21,42.37 33.21,42.37 C33.21,42.37 33.38,40.92 33.38,40.92 C33.38,40.92 28.05,43.38 28.05,43.38 C28.05,43.38 28.13,45.25 28.13,45.25 C28.13,45.25 28.47,41.01 28.47,41.01 C28.47,41.01 33.72,38.98 33.72,38.98 C33.72,38.98 26.61,42.70 26.61,42.70 C26.61,42.70 26.44,43.04 26.44,43.04" fill="none" stroke="rgb(255, 255, 255)" stroke-width="2.39" stroke-opacity="1.00" stroke-linejoin="round"/>
<path d="M50.67,32.54 C50.67,32.54 50.67,32.88 50.67,32.88 C50.67,32.88 49.14,32.62 49.14,32.62 C49.14,32.62 56.85,25.76 56.85,25.76 C56.85,25.76 49.99,30.84 49.99,30.84 C49.99,30.84 49.82,31.18 49.82,31.18" fill="none" stroke="rgb(255, 255, 255)" stroke-width="2.39" stroke-opacity="1.00" stroke-linejoin="round"/>
<path d="M51.01,29.99 C51.01,29.99 52.19,29.49 52.19,29.49 C52.19,29.49 52.70,31.60 52.70,31.60 C52.70,31.60 53.04,28.30 53.04,28.30 C53.04,28.30 54.06,32.03 54.06,32.03 C54.06,32.03 54.23,28.64 54.23,28.64 C54.23,28.64 55.24,33.04 55.24,33.04 C55.24,33.04 55.24,28.64 55.24,28.64 C55.24,28.64 56.09,33.04 56.09,33.04 C56.09,33.04 55.92,27.79 55.92,27.79 C55.92,27.79 56.94,34.15 56.94,34.15 C56.94,34.15 56.77,26.44 56.77,26.44 C56.77,26.44 57.45,32.54 57.45,32.54 C57.45,32.54 57.28,26.27 57.28,26.27 C57.28,26.27 57.28,33.38 57.28,33.38 C57.28,33.38 57.79,27.45 57.79,27.45 C57.79,27.45 58.13,33.55 58.13,33.55 C58.13,33.55 57.53,27.45 57.53,27.45 C57.53,27.45 56.52,34.91 56.52,34.91 C56.52,34.91 55.96,34.57 55.96,34.57" fill="none" stroke="rgb(255, 255, 255)" stroke-width="2.39" stroke-opacity="1.00" stroke-linejoin="round"/>
<path d="M51.52,35.08 C49.41,37.03 48.07,38.71 45.50,40.92 C45.49,40.93 44.10,42.33 43.89,42.45 C43.87,42.46 43.82,42.49 43.72,42.53" fill="none" stroke="rgb(255, 255, 255)" stroke-width="2.39" stroke-opacity="1.00" stroke-linejoin="round"/>
<path d="M65.41,28.64 C65.50,28.55 69.70,53.29 70.07,54.40 C70.24,54.91 70.85,56.73 70.83,56.85 C70.83,56.85 69.99,38.38 69.99,38.38 C69.99,38.38 71.00,55.24 71.00,55.24 C71.00,55.24 70.83,54.08 70.83,54.08" fill="none" stroke="rgb(255, 255, 255)" stroke-width="2.39" stroke-opacity="1.00" stroke-linejoin="round"/>
<path d="M71.68,58.29 C71.68,58.29 66.09,31.18 66.09,31.18 C66.15,31.45 67.44,35.21 67.70,37.20 C67.91,39.44 68.82,47.68 68.80,48.13 C68.56,46.64 67.05,41.47 67.02,41.26 C66.79,39.63 66.65,36.78 66.60,36.69 C66.60,36.69 66.94,43.55 66.94,43.55 C66.94,43.55 66.09,37.37 66.09,37.37 C66.09,37.37 68.80,49.82 68.80,49.82 C69.06,49.91 67.96,44.29 67.45,43.30 C67.44,43.28 67.44,43.26 67.45,43.21 C67.45,43.21 70.16,53.30 70.16,53.30 C70.16,53.30 68.55,47.53 68.55,47.53 C68.55,47.53 70.33,56.26 70.33,56.26 C70.33,56.26 69.39,50.08 69.39,50.08 C69.39,50.08 71.17,58.55 71.17,58.55 C71.17,58.55 70.33,51.18 70.33,51.18 C70.29,51.60 70.78,53.29 70.83,53.46 C70.85,53.51 70.85,53.54 70.83,53.55" fill="none" stroke="rgb(255, 255, 255)" stroke-width="2.39" stroke-opacity="1.00" stroke-linejoin="round"/>
<path d="M71.00,48.13 C71.00,48.13 71.00,47.79 71.00,47.79 C71.00,47.79 71.17,50.33 71.17,50.33 C71.17,50.33 70.83,43.21 70.83,43.21 C70.83,43.21 71.17,49.82 71.17,49.82 C71.17,49.82 70.16,40.76 70.16,40.76 C70.16,40.76 70.33,47.62 70.33,47.62 C70.14,47.44 68.38,35.33 68.29,34.40 C68.27,34.26 68.01,34.09 67.95,34.06 C67.95,34.06 69.56,41.43 69.56,41.43 C69.56,41.43 67.11,31.43 67.11,31.43 C67.54,31.97 69.32,38.46 69.31,38.55 C69.28,38.64 69.25,38.72 69.22,38.81 C69.22,38.81 66.85,29.74 66.85,29.74 C66.85,29.74 67.87,36.52 67.87,36.52 C67.87,36.52 67.78,36.52 67.78,36.52 C67.78,36.52 67.61,36.26 67.61,36.26" fill="none" stroke="rgb(255, 255, 255)" stroke-width="2.39" stroke-opacity="1.00" stroke-linejoin="round"/>
<path d="M65.24,28.30 C65.24,28.30 65.24,28.13 65.24,28.13 C65.24,28.13 65.24,26.44 65.24,26.44 C65.24,26.44 66.26,34.91 66.26,34.91 C66.26,34.91 65.41,26.61 65.41,26.61 C65.41,26.61 66.26,38.04 66.26,38.04 C66.26,38.04 65.24,29.57 65.24,29.57 C65.24,29.57 66.60,38.47 66.60,38.47 C66.60,38.47 66.26,35.59 66.26,35.59 C66.26,35.59 66.60,35.08 66.60,35.08" fill="none" stroke="rgb(255, 255, 255)" stroke-width="2.39" stroke-opacity="1.00" stroke-linejoin="round"/>
<path d="M65.92,32.03 C65.92,32.03 65.92,32.20 65.92,32.20 C65.92,32.20 64.90,24.91 64.90,24.91 C64.90,24.91 65.24,27.88 65.24,27.88 C65.24,27.88 64.23,24.74 64.23,24.74 C64.23,24.74 65.75,30.16 65.75,30.16 C65.75,30.16 64.56,25.93 64.56,25.93 C65.42,29.41 66.38,33.28 67.53,38.47 C67.77,39.52 68.27,41.49 68.42,42.06" fill="none" stroke="rgb(255, 255, 255)" stroke-width="2.39" stroke-opacity="1.00" stroke-linejoin="round"/>
</g>
</svg>
