<?xml version="1.0" encoding="UTF-8" standalone="no"?>
<!DOCTYPE svg PUBLIC "-//W3C//DTD SVG 1.1//EN" "http://www.w3.org/Graphics/SVG/1.1/DTD/svg11.dtd">
<svg width="200.00" height="50.00" viewBox="0.00 0.00 400.00 100.00" xmlns="http://www.w3.org/2000/svg" xmlns:xlink="http://www.w3.org/1999/xlink">
<g stroke-linecap="round" transform="translate(-37.00, -54.00)" id="CL_logo1_WHGR">
<path d="M117.28,151.21 C117.28,151.21 68.16,151.32 68.16,151.32 C68.16,151.32 43.51,107.92 43.51,107.92 C43.51,107.92 67.96,64.39 67.96,64.39 C67.96,64.39 117.08,64.28 117.08,64.28 C117.08,64.28 141.74,107.68 141.74,107.68 C141.74,107.68 117.28,151.21 117.28,151.21 Z" fill="#fff" stroke="rgb(255, 255, 255)" stroke-width="1.01" stroke-opacity="1.00" stroke-linejoin="miter"/>
<path d="M92.06,123.97 C90.39,125.89 88.39,127.39 86.07,128.49 C83.73,129.58 81.20,130.13 78.45,130.13 C75.70,130.13 73.16,129.59 70.83,128.52 C68.53,127.44 66.52,125.93 64.81,124.00 C63.10,122.03 61.78,119.74 60.83,117.11 C59.89,114.46 59.41,111.58 59.41,108.47 C59.41,105.34 59.89,102.46 60.83,99.84 C61.78,97.19 63.10,94.89 64.81,92.95 C66.52,91.00 68.53,89.49 70.83,88.43 C73.16,87.35 75.70,86.81 78.45,86.81 C81.18,86.81 83.71,87.36 86.04,88.45 C88.37,89.52 90.37,91.02 92.04,92.95 C92.04,92.95 89.04,96.42 89.04,96.42 C87.74,94.78 86.18,93.49 84.35,92.55 C82.54,91.61 80.54,91.15 78.38,91.15 C76.28,91.15 74.34,91.58 72.57,92.45 C70.79,93.30 69.25,94.51 67.93,96.08 C66.63,97.64 65.62,99.47 64.88,101.58 C64.17,103.69 63.80,105.99 63.80,108.47 C63.80,110.97 64.17,113.28 64.88,115.38 C65.62,117.47 66.63,119.31 67.93,120.88 C69.25,122.43 70.79,123.65 72.57,124.52 C74.34,125.37 76.28,125.80 78.38,125.80 C80.54,125.80 82.54,125.33 84.35,124.41 C86.18,123.47 87.74,122.17 89.04,120.52 C89.04,120.52 92.06,123.97 92.06,123.97 Z" fill="#808080" stroke="rgb(128, 128, 128)" stroke-width="1.01" stroke-opacity="1.00" stroke-linejoin="miter"/>
<path d="M122.28,129.74 C122.28,129.74 98.96,129.74 98.96,129.74 C98.96,129.74 98.96,87.85 98.96,87.85 C98.96,87.85 103.42,87.85 103.42,87.85 C103.42,87.85 103.42,125.37 103.42,125.37 C103.42,125.37 122.28,125.37 122.28,125.37 C122.28,125.37 122.28,129.74 122.28,129.74 Z" fill="#808080" stroke="rgb(128, 128, 128)" stroke-width="0.10" stroke-opacity="1.00" stroke-linejoin="miter"/>
</g>
<g stroke-linecap="round" transform="translate(12.00, -58.00)" id="kolette">
<path d="M112.00,153.81 C111.00,153.81 110.16,153.46 109.46,152.76 C108.87,152.17 108.57,151.37 108.57,150.38 C108.57,150.38 108.57,91.52 108.57,91.52 C108.57,90.43 108.92,89.64 109.61,89.14 C110.31,88.54 111.10,88.24 112.00,88.24 C112.79,88.24 113.54,88.54 114.23,89.14 C114.93,89.64 115.28,90.43 115.28,91.52 C115.28,91.52 115.28,121.47 115.28,121.47 C115.28,123.16 115.77,124.00 116.77,124.00 C117.26,124.00 117.76,123.81 118.26,123.41 C118.26,123.41 138.22,109.55 138.22,109.55 C138.82,109.25 139.41,109.10 140.01,109.10 C140.90,109.10 141.65,109.45 142.24,110.15 C142.94,110.74 143.29,111.54 143.29,112.53 C143.29,113.72 142.69,114.72 141.50,115.51 C141.50,115.51 124.66,126.54 124.66,126.54 C123.97,127.03 123.62,127.58 123.62,128.18 C123.62,128.77 123.97,129.42 124.66,130.11 C124.66,130.11 142.69,147.55 142.69,147.55 C143.09,147.85 143.34,148.19 143.44,148.59 C143.54,148.99 143.59,149.38 143.59,149.78 C143.59,150.78 143.24,151.62 142.54,152.32 C141.85,153.01 140.95,153.36 139.86,153.36 C139.26,153.36 138.62,153.11 137.92,152.61 C137.92,152.61 118.11,132.50 118.11,132.50 C117.41,131.80 116.82,131.46 116.32,131.46 C115.62,131.46 115.28,132.30 115.28,133.99 C115.28,133.99 115.28,150.38 115.28,150.38 C115.28,151.37 114.98,152.17 114.38,152.76 C113.79,153.46 112.99,153.81 112.00,153.81 Z" fill="#fff" stroke="rgb(255, 255, 255)" stroke-width="1.00" stroke-opacity="1.00" stroke-linejoin="miter"/>
<path d="M172.94,153.81 C168.77,153.81 165.04,152.81 161.76,150.83 C158.49,148.84 155.85,146.16 153.87,142.78 C151.98,139.30 151.04,135.43 151.04,131.16 C151.04,126.89 151.98,123.11 153.87,119.83 C155.85,116.55 158.49,113.97 161.76,112.08 C165.04,110.10 168.77,109.10 172.94,109.10 C177.11,109.10 180.84,110.10 184.11,112.08 C187.49,113.97 190.12,116.55 192.01,119.83 C194.00,123.11 194.99,126.89 194.99,131.16 C194.99,135.43 194.00,139.30 192.01,142.78 C190.12,146.16 187.49,148.84 184.11,150.83 C180.84,152.81 177.11,153.81 172.94,153.81 Z" fill="#fff" stroke="rgb(255, 255, 255)" stroke-width="1.00" stroke-opacity="1.00" stroke-linejoin="miter"/>
<path d="M172.94,147.70 C177.61,147.70 181.33,146.11 184.11,142.93 C186.90,139.75 188.29,135.83 188.29,131.16 C188.29,126.69 186.90,122.91 184.11,119.83 C181.33,116.75 177.61,115.21 172.94,115.21 C168.37,115.21 164.69,116.75 161.91,119.83 C159.23,122.91 157.89,126.69 157.89,131.16 C157.89,135.83 159.23,139.75 161.91,142.93 C164.69,146.11 168.37,147.70 172.94,147.70 Z" fill="#2bc4c3" stroke="rgb(255, 255, 255)" stroke-width="1.00" stroke-opacity="1.00" stroke-linejoin="miter"/>
<path d="M209.59,153.81 C208.60,153.81 207.76,153.46 207.06,152.76 C206.46,152.17 206.17,151.37 206.17,150.38 C206.17,150.38 206.17,91.52 206.17,91.52 C206.17,90.43 206.51,89.64 207.21,89.14 C207.90,88.54 208.70,88.24 209.59,88.24 C210.39,88.24 211.13,88.54 211.83,89.14 C212.52,89.64 212.87,90.43 212.87,91.52 C212.87,91.52 212.87,150.38 212.87,150.38 C212.87,151.37 212.57,152.17 211.98,152.76 C211.38,153.46 210.59,153.81 209.59,153.81 Z" fill="#fff" stroke="rgb(255, 255, 255)" stroke-width="1.00" stroke-opacity="1.00" stroke-linejoin="miter"/>
<path d="M246.99,153.81 C240.04,153.81 234.48,151.77 230.30,147.70 C226.13,143.52 224.05,137.81 224.05,130.56 C224.05,126.59 224.94,123.01 226.73,119.83 C228.52,116.55 231.00,113.97 234.18,112.08 C237.46,110.10 241.28,109.10 245.65,109.10 C250.22,109.10 253.99,110.10 256.97,112.08 C259.95,113.97 262.14,116.36 263.53,119.24 C265.02,122.02 265.77,124.80 265.77,127.58 C265.77,129.27 265.37,130.66 264.57,131.75 C263.88,132.85 262.84,133.39 261.44,133.39 C261.44,133.39 232.84,133.39 232.84,133.39 C232.24,133.39 231.79,133.44 231.50,133.54 C231.30,133.64 231.20,133.99 231.20,134.58 C231.20,136.27 231.74,138.11 232.84,140.10 C233.93,142.08 235.47,143.82 237.46,145.31 C239.54,146.70 241.93,147.50 244.61,147.70 C247.49,147.89 250.32,147.60 253.10,146.80 C255.88,146.01 258.37,144.77 260.55,143.08 C261.05,142.68 261.59,142.48 262.19,142.48 C262.89,142.48 263.53,142.78 264.13,143.38 C264.82,143.97 265.17,144.72 265.17,145.61 C265.17,146.50 264.72,147.40 263.83,148.29 C261.44,150.18 258.76,151.57 255.78,152.46 C252.80,153.36 249.87,153.81 246.99,153.81 Z" fill="#fff" stroke="rgb(255, 255, 255)" stroke-width="1.00" stroke-opacity="1.00" stroke-linejoin="miter"/>
<path d="M256.38,128.18 C257.17,128.18 257.77,127.88 258.17,127.28 C258.56,126.59 258.66,125.74 258.46,124.75 C258.17,122.17 256.83,119.88 254.44,117.90 C252.06,115.81 249.13,114.77 245.65,114.77 C243.07,114.77 240.68,115.41 238.50,116.70 C236.41,117.90 234.72,119.44 233.43,121.32 C232.14,123.21 231.50,125.20 231.50,127.28 C231.50,127.78 231.94,128.03 232.84,128.03 C232.84,128.03 256.38,128.18 256.38,128.18 Z" fill="#2bc4c3" stroke="rgb(255, 255, 255)" stroke-width="1.00" stroke-opacity="1.00" stroke-linejoin="miter"/>
<path d="M282.34,114.70 C282.34,114.70 282.34,105.16 282.34,105.16 C282.34,104.26 282.64,103.54 283.25,102.98 C283.89,102.34 284.74,102.03 285.79,102.03 C287.30,102.03 288.34,102.62 288.89,103.81 C289.08,104.21 289.17,104.66 289.17,105.16 C289.17,105.16 289.17,114.70 289.17,114.70 C289.17,114.70 298.27,114.70 298.27,114.70 C299.06,114.70 299.70,114.95 300.18,115.45 C300.76,116.04 301.05,116.79 301.05,117.72 C301.05,118.96 300.60,119.88 299.70,120.46 C299.28,120.70 298.80,120.82 298.27,120.82 C298.27,120.82 289.17,120.82 289.17,120.82 C289.17,120.82 289.17,150.54 289.17,150.54 C289.17,151.41 288.87,152.14 288.26,152.72 C287.62,153.36 286.79,153.67 285.76,153.67 C284.22,153.67 283.17,153.08 282.62,151.89 C282.43,151.49 282.34,151.04 282.34,150.54 C282.34,150.54 282.34,120.82 282.34,120.82 C282.34,120.82 273.24,120.82 273.24,120.82 C272.74,120.82 272.30,120.71 271.93,120.50 C270.95,119.97 270.46,119.04 270.46,117.72 C270.46,116.63 270.84,115.80 271.61,115.22 C272.04,114.87 272.58,114.70 273.24,114.70 C273.24,114.70 282.34,114.70 282.34,114.70 Z" fill="#fff" stroke="rgb(255, 255, 255)" stroke-width="1.00" stroke-opacity="1.00" stroke-linejoin="miter"/>
<path d="M317.34,114.70 C317.34,114.70 317.34,105.16 317.34,105.16 C317.34,104.26 317.64,103.54 318.25,102.98 C318.89,102.34 319.74,102.03 320.80,102.03 C322.31,102.03 323.34,102.62 323.90,103.81 C324.08,104.21 324.17,104.66 324.17,105.16 C324.17,105.16 324.17,114.70 324.17,114.70 C324.17,114.70 333.27,114.70 333.27,114.70 C334.07,114.70 334.70,114.95 335.18,115.45 C335.76,116.04 336.05,116.79 336.05,117.72 C336.05,118.96 335.60,119.88 334.70,120.46 C334.28,120.70 333.80,120.82 333.27,120.82 C333.27,120.82 324.17,120.82 324.17,120.82 C324.17,120.82 324.17,150.54 324.17,150.54 C324.17,151.41 323.87,152.14 323.26,152.72 C322.62,153.36 321.79,153.67 320.76,153.67 C319.22,153.67 318.17,153.08 317.62,151.89 C317.43,151.49 317.34,151.04 317.34,150.54 C317.34,150.54 317.34,120.82 317.34,120.82 C317.34,120.82 308.24,120.82 308.24,120.82 C307.74,120.82 307.30,120.71 306.93,120.50 C305.95,119.97 305.46,119.04 305.46,117.72 C305.46,116.63 305.85,115.80 306.61,115.22 C307.04,114.87 307.58,114.70 308.24,114.70 C308.24,114.70 317.34,114.70 317.34,114.70 Z" fill="#fff" stroke="rgb(255, 255, 255)" stroke-width="1.00" stroke-opacity="1.00" stroke-linejoin="miter"/>
<path d="M362.22,153.83 C355.27,153.83 349.71,151.80 345.53,147.72 C341.36,143.55 339.28,137.84 339.28,130.59 C339.28,126.61 340.17,123.04 341.96,119.86 C343.75,116.58 346.23,114.00 349.41,112.11 C352.69,110.12 356.51,109.13 360.88,109.13 C365.45,109.13 369.22,110.12 372.20,112.11 C375.18,114.00 377.37,116.38 378.76,119.26 C380.25,122.04 381.00,124.83 381.00,127.61 C381.00,129.30 380.60,130.69 379.80,131.78 C379.11,132.87 378.07,133.42 376.67,133.42 C376.67,133.42 348.07,133.42 348.07,133.42 C347.47,133.42 347.02,133.47 346.73,133.57 C346.53,133.67 346.43,134.01 346.43,134.61 C346.43,136.30 346.97,138.14 348.07,140.12 C349.16,142.11 350.70,143.85 352.69,145.34 C354.77,146.73 357.16,147.52 359.84,147.72 C362.72,147.92 365.55,147.62 368.33,146.83 C371.11,146.03 373.60,144.79 375.78,143.10 C376.28,142.71 376.82,142.51 377.42,142.51 C378.12,142.51 378.76,142.81 379.36,143.40 C380.05,144.00 380.40,144.74 380.40,145.64 C380.40,146.53 379.95,147.42 379.06,148.32 C376.67,150.21 373.99,151.60 371.01,152.49 C368.03,153.38 365.10,153.83 362.22,153.83 Z" fill="#fff" stroke="rgb(255, 255, 255)" stroke-width="1.00" stroke-opacity="1.00" stroke-linejoin="miter"/>
<path d="M371.61,128.20 C372.40,128.20 373.00,127.91 373.40,127.31 C373.79,126.61 373.89,125.77 373.69,124.78 C373.40,122.19 372.06,119.91 369.67,117.92 C367.29,115.84 364.36,114.79 360.88,114.79 C358.30,114.79 355.91,115.44 353.73,116.73 C351.64,117.92 349.95,119.46 348.66,121.35 C347.37,123.24 346.73,125.22 346.73,127.31 C346.73,127.81 347.17,128.05 348.07,128.05 C348.07,128.05 371.61,128.20 371.61,128.20 Z" fill="#2bc4c3" stroke="rgb(255, 255, 255)" stroke-width="1.00" stroke-opacity="1.00" stroke-linejoin="miter"/>
<path d="M173.88,65.04 C173.88,65.04 173.88,67.65 173.88,67.65 C174.56,67.62 176.02,67.56 177.11,67.56 C177.11,67.56 191.15,67.56 191.15,67.56 C191.15,67.56 191.15,81.39 191.15,81.39 C191.15,81.39 176.75,81.39 176.75,81.39 C175.52,81.39 174.26,81.31 173.50,81.22 C173.50,81.22 173.50,83.89 173.50,83.89 C174.29,83.83 175.61,83.77 176.81,83.77 C176.81,83.77 191.15,83.77 191.15,83.77 C191.12,84.47 191.12,85.09 191.09,85.41 C191.09,85.41 193.73,85.41 193.73,85.41 C193.70,84.94 193.61,83.62 193.61,82.57 C193.61,82.57 193.61,67.44 193.61,67.44 C193.61,66.74 193.67,65.83 193.70,65.16 C193.11,65.18 192.23,65.21 191.53,65.21 C191.53,65.21 177.08,65.21 177.08,65.21 C176.14,65.21 174.85,65.16 173.88,65.04 Z" fill="#fff" stroke="rgb(255, 255, 255)" stroke-width="1.00" stroke-opacity="1.00" stroke-linejoin="miter"/>
<path d="M216.23,84.28 C216.23,84.28 217.91,85.72 217.91,85.72 C218.37,85.43 218.81,85.29 219.12,85.20 C226.33,83.12 232.28,79.53 236.04,74.88 C236.04,74.88 234.74,72.85 234.74,72.85 C231.16,77.51 224.45,81.33 218.92,82.72 C218.92,82.72 218.92,66.32 218.92,66.32 C218.92,65.48 219.01,64.41 219.12,63.69 C219.12,63.69 216.26,63.69 216.26,63.69 C216.38,64.27 216.52,65.57 216.52,66.32 C216.52,66.32 216.52,82.86 216.52,82.86 C216.52,83.44 216.44,83.81 216.23,84.28 Z" fill="#fff" stroke="rgb(255, 255, 255)" stroke-width="1.00" stroke-opacity="1.00" stroke-linejoin="miter"/>
<path d="M303.28,63.57 C303.28,63.57 303.28,65.92 303.28,65.92 C303.99,65.86 304.92,65.83 305.85,65.83 C305.85,65.83 317.29,65.83 317.29,65.83 C318.11,65.83 319.10,65.86 319.92,65.92 C319.92,65.92 319.92,63.57 319.92,63.57 C319.10,63.68 318.08,63.74 317.29,63.74 C317.29,63.74 305.83,63.74 305.83,63.74 C304.92,63.74 304.07,63.65 303.28,63.57 Z" fill="#fff" stroke="rgb(255, 255, 255)" stroke-width="1.00" stroke-opacity="1.00" stroke-linejoin="miter"/>
<path d="M299.88,70.67 C299.88,70.67 299.88,73.02 299.88,73.02 C300.67,72.97 301.50,72.97 302.34,72.97 C302.34,72.97 310.84,72.97 310.84,72.97 C310.75,75.63 310.44,78.01 309.20,79.99 C308.09,81.77 306.05,83.41 303.84,84.32 C303.84,84.32 305.94,85.88 305.94,85.88 C308.35,84.63 310.50,82.59 311.52,80.69 C312.65,78.60 313.10,76.02 313.19,72.97 C313.19,72.97 320.89,72.97 320.89,72.97 C321.57,72.97 322.47,72.99 323.10,73.02 C323.10,73.02 323.10,70.67 323.10,70.67 C322.42,70.79 321.48,70.81 320.89,70.81 C320.89,70.81 302.34,70.81 302.34,70.81 C301.47,70.81 300.67,70.76 299.88,70.67 Z" fill="#fff" stroke="rgb(255, 255, 255)" stroke-width="1.00" stroke-opacity="1.00" stroke-linejoin="miter"/>
<path d="M267.79,69.37 C267.79,69.37 265.96,70.00 265.96,70.00 C266.49,71.13 267.64,74.32 267.92,75.45 C267.92,75.45 269.78,74.79 269.78,74.79 C269.45,73.69 268.22,70.38 267.79,69.37 Z" fill="#fff" stroke="rgb(255, 255, 255)" stroke-width="1.00" stroke-opacity="1.00" stroke-linejoin="miter"/>
<path d="M276.88,70.78 C276.88,70.78 274.72,70.10 274.72,70.10 C274.34,73.31 273.04,76.50 271.26,78.68 C269.20,81.27 266.01,83.17 263.10,84.03 C263.10,84.03 264.76,85.71 264.76,85.71 C267.57,84.63 270.63,82.70 272.94,79.74 C274.75,77.48 275.82,74.79 276.50,72.03 C276.60,71.71 276.70,71.31 276.88,70.78 Z" fill="#fff" stroke="rgb(255, 255, 255)" stroke-width="1.00" stroke-opacity="1.00" stroke-linejoin="miter"/>
<path d="M261.97,70.63 C261.97,70.63 260.12,71.36 260.12,71.36 C260.62,72.23 261.97,75.70 262.35,77.00 C262.35,77.00 264.26,76.30 264.26,76.30 C263.78,74.99 262.47,71.71 261.97,70.63 Z" fill="#fff" stroke="rgb(255, 255, 255)" stroke-width="1.00" stroke-opacity="1.00" stroke-linejoin="miter"/>
</g>
</svg>
