<?xml version="1.0" encoding="UTF-8" standalone="no"?>
<!DOCTYPE svg PUBLIC "-//W3C//DTD SVG 1.1//EN" "http://www.w3.org/Graphics/SVG/1.1/DTD/svg11.dtd">
<svg width="300.00" height="120.00" viewBox="0.00 0.00 300.00 120.00" xmlns="http://www.w3.org/2000/svg" xmlns:xlink="http://www.w3.org/1999/xlink">
<g stroke-linecap="round" id="manamoa1">
<path d="M24.79,68.20 C22.70,68.20 20.58,67.95 18.43,67.45 C16.34,67.00 14.39,66.25 12.59,65.20 C10.85,64.16 9.42,62.78 8.32,61.09 C7.28,59.34 6.75,57.24 6.75,54.80 C6.75,52.30 7.35,50.21 8.55,48.51 C9.75,46.81 11.29,45.44 13.19,44.39 C15.14,43.34 17.23,42.60 19.48,42.15 C21.73,41.70 23.87,41.47 25.92,41.47 C27.22,41.47 28.49,41.55 29.74,41.70 C30.98,41.80 32.23,41.95 33.48,42.15 C33.53,40.70 33.53,39.23 33.48,37.73 C33.43,36.23 33.40,34.76 33.40,33.31 C33.40,33.31 11.02,33.31 11.02,33.31 C9.92,33.31 8.97,33.09 8.18,32.64 C7.43,32.19 7.05,31.37 7.05,30.17 C7.05,28.97 7.43,28.15 8.18,27.70 C8.97,27.25 9.92,27.02 11.02,27.02 C11.02,27.02 33.33,27.02 33.33,27.02 C33.28,25.43 33.25,23.80 33.25,22.16 C33.30,20.51 33.28,18.89 33.18,17.29 C33.18,17.29 9.67,17.29 9.67,17.29 C8.57,17.29 7.65,17.07 6.90,16.62 C6.15,16.17 5.78,15.35 5.78,14.15 C5.78,12.95 6.15,12.13 6.90,11.68 C7.65,11.23 8.57,11.00 9.67,11.00 C9.67,11.00 33.10,11.00 33.10,11.00 C33.06,10.25 32.98,9.38 32.88,8.38 C32.83,7.33 32.86,6.34 32.96,5.39 C33.06,4.44 33.35,3.64 33.85,2.99 C34.40,2.34 35.25,2.02 36.40,2.02 C37.50,2.02 38.30,2.34 38.79,2.99 C39.34,3.64 39.67,4.47 39.77,5.46 C39.92,6.41 39.97,7.41 39.92,8.46 C39.92,9.46 39.92,10.30 39.92,11.00 C39.92,11.00 61.93,11.00 61.93,11.00 C63.03,11.00 63.95,11.23 64.70,11.68 C65.45,12.13 65.82,12.95 65.82,14.15 C65.82,15.35 65.45,16.17 64.70,16.62 C63.95,17.07 63.03,17.29 61.93,17.29 C61.93,17.29 39.92,17.29 39.92,17.29 C39.92,17.29 39.99,18.02 39.99,18.86 C40.04,19.71 40.07,20.69 40.07,21.78 C40.07,22.88 40.07,23.93 40.07,24.93 C40.07,25.88 40.07,26.57 40.07,27.02 C40.07,27.02 60.58,27.02 60.58,27.02 C61.68,27.02 62.60,27.25 63.35,27.70 C64.10,28.15 64.47,28.97 64.47,30.17 C64.47,31.37 64.10,32.19 63.35,32.64 C62.60,33.09 61.68,33.31 60.58,33.31 C60.58,33.31 40.14,33.31 40.14,33.31 C40.19,35.01 40.22,36.73 40.22,38.48 C40.22,40.18 40.24,41.90 40.29,43.64 C41.29,43.94 42.74,44.44 44.63,45.14 C46.58,45.84 48.68,46.69 50.92,47.69 C53.17,48.68 55.31,49.78 57.36,50.98 C59.41,52.13 61.08,53.33 62.38,54.57 C63.72,55.82 64.40,57.02 64.40,58.17 C64.40,59.42 64.05,60.31 63.35,60.86 C62.65,61.41 61.73,61.69 60.58,61.69 C59.83,61.69 59.03,61.41 58.18,60.86 C57.39,60.26 56.71,59.74 56.16,59.29 C53.82,57.39 51.32,55.70 48.68,54.20 C46.03,52.65 43.26,51.40 40.37,50.46 C40.37,51.95 40.34,53.50 40.29,55.10 C40.29,56.65 40.12,58.14 39.77,59.59 C39.22,61.94 38.15,63.73 36.55,64.98 C35.00,66.23 33.18,67.08 31.08,67.53 C29.04,67.97 26.94,68.20 24.79,68.20 Z" fill="#fff" stroke="rgb(255, 255, 255)" stroke-width="0.10" stroke-opacity="1.00" stroke-linejoin="miter"/>
<path d="M24.27,61.91 C27.22,61.91 29.51,61.21 31.16,59.81 C32.81,58.37 33.63,56.12 33.63,53.08 C33.63,52.28 33.60,51.50 33.55,50.76 C33.55,49.96 33.55,49.16 33.55,48.36 C32.31,48.11 31.01,47.94 29.66,47.84 C28.36,47.69 27.07,47.61 25.77,47.61 C24.67,47.61 23.42,47.71 22.03,47.91 C20.68,48.11 19.35,48.46 18.06,48.96 C16.76,49.46 15.69,50.18 14.84,51.13 C13.99,52.03 13.57,53.20 13.57,54.65 C13.57,56.45 14.14,57.89 15.29,58.99 C16.49,60.04 17.91,60.79 19.55,61.24 C21.25,61.69 22.82,61.91 24.27,61.91 Z" fill="#294a6a" stroke="rgb(41, 74, 106)" stroke-width="0.10" stroke-opacity="1.00" stroke-linejoin="miter"/>
<path d="M83.19,55.70 C80.89,55.70 79.75,54.55 79.75,52.25 C79.75,51.65 79.94,50.98 80.34,50.23 C80.79,49.48 81.17,48.86 81.47,48.36 C84.51,43.42 87.08,38.23 89.18,32.79 C91.27,27.30 93.17,21.81 94.87,16.32 C94.87,16.32 84.01,16.32 84.01,16.32 C82.91,16.32 81.99,16.09 81.24,15.64 C80.49,15.20 80.12,14.35 80.12,13.10 C80.12,11.90 80.49,11.08 81.24,10.63 C81.99,10.18 82.91,9.96 84.01,9.96 C84.01,9.96 96.81,9.96 96.81,9.96 C97.01,9.06 97.24,7.96 97.49,6.66 C97.79,5.31 98.24,4.14 98.84,3.14 C99.48,2.09 100.43,1.57 101.68,1.57 C103.78,1.57 104.82,2.54 104.82,4.49 C104.82,4.49 104.72,4.99 104.53,5.84 C104.33,6.69 104.13,7.56 103.93,8.46 C103.73,9.31 103.55,9.96 103.55,9.96 C103.55,9.96 116.20,9.96 116.20,9.96 C117.30,9.96 118.23,10.18 118.97,10.63 C119.72,11.08 120.10,11.90 120.10,13.10 C120.10,14.35 119.72,15.20 118.97,15.64 C118.28,16.09 117.35,16.32 116.20,16.32 C116.20,16.32 101.68,16.32 101.68,16.32 C101.28,17.57 100.73,19.24 100.03,21.33 C99.33,23.43 98.51,25.75 97.56,28.30 C96.66,30.84 95.69,33.44 94.64,36.08 C93.60,38.73 92.55,41.27 91.50,43.72 C90.45,46.11 89.45,48.24 88.50,50.08 C87.56,51.88 86.71,53.23 85.96,54.12 C85.61,54.57 85.21,54.95 84.76,55.25 C84.31,55.55 83.79,55.70 83.19,55.70 Z" fill="#fff" stroke="rgb(255, 255, 255)" stroke-width="0.10" stroke-opacity="1.00" stroke-linejoin="miter"/>
<path d="M142.41,26.28 C141.91,26.28 141.36,26.23 140.76,26.13 C140.16,25.98 139.61,25.88 139.11,25.83 C136.17,25.38 133.25,24.93 130.35,24.48 C127.46,23.98 124.51,23.73 121.52,23.73 C120.52,23.73 119.47,23.56 118.38,23.21 C117.33,22.86 116.80,22.03 116.80,20.74 C116.80,19.39 117.30,18.51 118.30,18.12 C119.35,17.67 120.42,17.44 121.52,17.44 C124.51,17.44 127.53,17.59 130.58,17.89 C133.62,18.14 136.62,18.54 139.56,19.09 C140.21,19.19 141.01,19.39 141.96,19.69 C142.96,19.94 143.83,20.31 144.58,20.81 C145.33,21.31 145.70,22.01 145.70,22.91 C145.70,25.15 144.60,26.28 142.41,26.28 Z" fill="#fff" stroke="rgb(255, 255, 255)" stroke-width="0.10" stroke-opacity="1.00" stroke-linejoin="miter"/>
<path d="M113.73,69.10 C111.79,69.10 109.79,68.82 107.74,68.27 C105.70,67.78 103.83,66.98 102.13,65.88 C100.43,64.78 99.06,63.41 98.01,61.76 C96.96,60.06 96.44,58.09 96.44,55.85 C96.44,53.55 96.94,51.60 97.94,50.01 C98.94,48.41 100.26,47.11 101.91,46.11 C103.60,45.12 105.42,44.39 107.37,43.94 C109.37,43.44 111.34,43.19 113.28,43.19 C114.63,43.19 115.98,43.29 117.33,43.49 C118.67,43.64 120.00,43.84 121.29,44.09 C121.29,44.09 121.29,32.86 121.29,32.86 C121.29,31.72 121.52,30.77 121.97,30.02 C122.47,29.27 123.34,28.90 124.59,28.90 C125.84,28.90 126.69,29.27 127.13,30.02 C127.63,30.77 127.88,31.72 127.88,32.86 C127.88,32.86 127.88,45.82 127.88,45.82 C128.58,46.06 129.58,46.46 130.88,47.01 C132.23,47.56 133.67,48.24 135.22,49.03 C136.82,49.78 138.31,50.61 139.71,51.50 C141.16,52.40 142.33,53.33 143.23,54.27 C144.13,55.17 144.58,56.05 144.58,56.89 C144.58,59.14 143.40,60.26 141.06,60.26 C140.41,60.26 139.79,60.06 139.19,59.66 C138.59,59.22 138.04,58.82 137.54,58.47 C134.60,56.22 131.38,54.32 127.88,52.78 C127.88,52.78 127.88,57.12 127.88,57.12 C127.88,60.06 127.26,62.41 126.01,64.16 C124.76,65.90 123.07,67.15 120.92,67.90 C118.82,68.70 116.43,69.10 113.73,69.10 Z" fill="#fff" stroke="rgb(255, 255, 255)" stroke-width="0.10" stroke-opacity="1.00" stroke-linejoin="miter"/>
<path d="M113.36,62.96 C115.85,62.96 117.80,62.38 119.20,61.24 C120.60,60.09 121.29,58.22 121.29,55.62 C121.29,55.62 121.29,50.31 121.29,50.31 C119.85,50.01 118.38,49.76 116.88,49.56 C115.43,49.36 113.96,49.26 112.46,49.26 C110.91,49.26 109.39,49.43 107.89,49.78 C106.45,50.13 105.25,50.81 104.30,51.80 C103.35,52.75 102.88,54.15 102.88,56.00 C102.88,57.64 103.45,58.99 104.60,60.04 C105.80,61.04 107.22,61.79 108.87,62.29 C110.51,62.73 112.01,62.96 113.36,62.96 Z" fill="#294a6a" stroke="rgb(41, 74, 106)" stroke-width="0.10" stroke-opacity="1.00" stroke-linejoin="miter"/>
<path d="M193.24,68.20 C190.24,68.20 187.38,67.92 184.63,67.38 C181.93,66.83 179.54,65.93 177.44,64.68 C175.35,63.38 173.67,61.61 172.43,59.37 C171.23,57.07 170.63,54.20 170.63,50.76 C170.63,49.01 170.71,47.24 170.85,45.44 C171.00,43.64 171.18,41.87 171.38,40.13 C171.38,40.13 160.07,40.13 160.07,40.13 C158.98,40.13 158.03,39.90 157.23,39.45 C156.48,38.95 156.11,38.08 156.11,36.83 C156.11,35.58 156.48,34.74 157.23,34.29 C158.03,33.79 158.98,33.54 160.07,33.54 C160.07,33.54 171.98,33.54 171.98,33.54 C171.98,33.54 173.10,21.26 173.10,21.26 C173.10,21.26 173.10,21.03 173.10,21.03 C173.10,21.03 162.55,21.03 162.55,21.03 C161.45,21.03 160.50,20.81 159.70,20.36 C158.95,19.91 158.58,19.06 158.58,17.82 C158.58,16.57 158.95,15.72 159.70,15.27 C160.50,14.82 161.45,14.60 162.55,14.60 C162.55,14.60 173.85,14.60 173.85,14.60 C173.85,14.60 174.67,7.48 174.67,7.48 C174.77,6.64 174.92,5.76 175.12,4.86 C175.32,3.97 175.67,3.22 176.17,2.62 C176.72,2.02 177.54,1.72 178.64,1.72 C179.59,1.72 180.36,1.99 180.96,2.54 C181.61,3.09 181.88,3.87 181.79,4.86 C181.79,4.86 180.66,14.60 180.66,14.60 C180.66,14.60 198.93,14.60 198.93,14.60 C200.03,14.60 200.95,14.82 201.70,15.27 C202.50,15.72 202.90,16.57 202.90,17.82 C202.90,19.06 202.50,19.91 201.70,20.36 C200.95,20.81 200.03,21.03 198.93,21.03 C198.93,21.03 179.91,21.03 179.91,21.03 C179.51,23.03 179.29,25.10 179.24,27.25 C179.19,29.39 178.97,31.49 178.57,33.54 C178.57,33.54 199.90,33.54 199.90,33.54 C201.05,33.54 202.00,33.79 202.75,34.29 C203.55,34.74 203.94,35.58 203.94,36.83 C203.94,38.08 203.55,38.95 202.75,39.45 C202.00,39.90 201.05,40.13 199.90,40.13 C199.90,40.13 177.97,40.13 177.97,40.13 C177.92,41.37 177.82,42.67 177.67,44.02 C177.52,45.37 177.44,46.69 177.44,47.99 C177.44,51.43 178.12,54.12 179.46,56.07 C180.81,58.02 182.68,59.42 185.08,60.26 C187.52,61.06 190.29,61.46 193.39,61.46 C196.68,61.46 199.73,60.94 202.52,59.89 C205.37,58.79 207.66,57.09 209.41,54.80 C211.16,52.50 212.03,49.56 212.03,45.96 C212.03,44.42 211.73,42.77 211.13,41.02 C210.58,39.28 210.03,37.68 209.48,36.23 C208.94,34.74 208.66,33.66 208.66,33.01 C208.66,31.92 208.96,31.14 209.56,30.69 C210.21,30.24 211.03,30.02 212.03,30.02 C213.33,30.02 214.40,30.67 215.25,31.97 C216.15,33.21 216.85,34.76 217.35,36.61 C217.89,38.45 218.27,40.25 218.47,42.00 C218.72,43.74 218.84,45.09 218.84,46.04 C218.84,51.18 217.69,55.40 215.40,58.69 C213.10,61.94 210.01,64.33 206.12,65.88 C202.27,67.43 197.98,68.20 193.24,68.20 Z" fill="#fff" stroke="rgb(255, 255, 255)" stroke-width="0.10" stroke-opacity="1.00" stroke-linejoin="miter"/>
<path d="M268.18,69.70 C266.08,69.70 265.03,68.60 265.03,66.40 C265.03,65.60 265.38,64.98 266.08,64.53 C266.78,64.03 267.58,63.66 268.48,63.41 C269.38,63.11 270.10,62.88 270.65,62.73 C272.99,62.14 275.29,61.41 277.54,60.56 C279.78,59.71 281.80,58.62 283.60,57.27 C285.40,55.92 286.82,54.27 287.87,52.33 C288.97,50.33 289.51,47.94 289.51,45.14 C289.51,42.00 288.77,39.28 287.27,36.98 C285.77,34.69 283.65,32.81 280.91,31.37 C279.76,33.71 278.29,36.31 276.49,39.15 C274.69,41.95 272.65,44.74 270.35,47.54 C268.05,50.33 265.58,52.90 262.94,55.25 C260.29,57.54 257.52,59.39 254.63,60.79 C251.78,62.19 248.91,62.88 246.02,62.88 C243.57,62.88 241.48,62.26 239.73,61.01 C237.98,59.76 236.64,58.14 235.69,56.15 C234.79,54.15 234.34,52.00 234.34,49.71 C234.34,45.62 235.21,41.95 236.96,38.70 C238.71,35.46 241.05,32.66 244.00,30.32 C246.99,27.97 250.31,26.15 253.95,24.85 C254.05,21.91 254.20,19.04 254.40,16.24 C254.40,16.24 239.58,16.24 239.58,16.24 C238.48,16.24 237.53,16.02 236.74,15.57 C235.99,15.12 235.61,14.27 235.61,13.02 C235.61,11.83 236.01,11.00 236.81,10.55 C237.61,10.10 238.53,9.88 239.58,9.88 C239.58,9.88 254.78,9.88 254.78,9.88 C254.83,8.88 254.88,7.73 254.93,6.44 C255.03,5.14 255.35,3.99 255.90,2.99 C256.45,1.99 257.40,1.50 258.75,1.50 C259.74,1.50 260.52,1.72 261.07,2.17 C261.67,2.62 261.96,3.37 261.96,4.42 C261.96,5.26 261.89,6.19 261.74,7.19 C261.59,8.13 261.47,9.03 261.37,9.88 C261.37,9.88 291.39,9.88 291.39,9.88 C292.53,9.88 293.46,10.10 294.16,10.55 C294.90,11.00 295.28,11.85 295.28,13.10 C295.28,14.30 294.90,15.12 294.16,15.57 C293.41,16.02 292.48,16.24 291.39,16.24 C291.39,16.24 260.84,16.24 260.84,16.24 C260.84,16.24 260.74,16.64 260.69,17.29 C260.64,17.94 260.59,18.69 260.54,19.54 C260.54,20.39 260.52,21.18 260.47,21.93 C260.42,22.63 260.39,23.21 260.39,23.21 C261.64,23.01 262.89,22.86 264.14,22.76 C265.43,22.66 266.71,22.61 267.95,22.61 C271.55,22.61 275.02,23.03 278.36,23.88 C281.75,24.73 284.80,26.05 287.49,27.85 C290.19,29.64 292.33,31.99 293.93,34.88 C295.53,37.73 296.33,41.17 296.33,45.22 C296.33,50.01 295.13,54.10 292.73,57.49 C290.39,60.84 287.12,63.58 282.93,65.73 C280.68,66.88 278.29,67.83 275.74,68.57 C273.24,69.32 270.72,69.70 268.18,69.70 Z" fill="#fff" stroke="rgb(255, 255, 255)" stroke-width="0.10" stroke-opacity="1.00" stroke-linejoin="miter"/>
<path d="M261.52,48.81 C264.46,46.01 267.08,42.97 269.38,39.68 C271.72,36.33 273.79,32.84 275.59,29.20 C272.94,28.50 270.35,28.15 267.80,28.15 C266.56,28.15 265.28,28.22 263.99,28.37 C262.74,28.52 261.49,28.72 260.24,28.97 C260.24,32.31 260.37,35.63 260.62,38.93 C260.87,42.22 261.17,45.52 261.52,48.81 Z" fill="#294a6a" stroke="rgb(41, 74, 106)" stroke-width="0.10" stroke-opacity="1.00" stroke-linejoin="miter"/>
<path d="M246.54,56.75 C248.14,56.75 249.76,56.40 251.41,55.70 C253.06,54.95 254.53,54.17 255.83,53.38 C255.13,49.73 254.63,46.04 254.33,42.30 C254.08,38.50 253.90,34.76 253.80,31.07 C249.86,32.91 246.69,35.33 244.30,38.33 C241.90,41.32 240.70,45.09 240.70,49.63 C240.70,51.63 241.13,53.33 241.98,54.72 C242.82,56.07 244.35,56.75 246.54,56.75 Z" fill="#294a6a" stroke="rgb(41, 74, 106)" stroke-width="0.10" stroke-opacity="1.00" stroke-linejoin="miter"/>
<path d="M26.37,94.70 C26.37,94.70 35.01,94.70 35.01,94.70 C35.01,94.70 35.01,97.54 35.01,97.54 C35.01,97.54 26.37,97.54 26.37,97.54 C26.37,97.54 26.37,94.70 26.37,94.70 Z" fill="#fff" stroke="rgb(255, 255, 255)" stroke-width="0.10" stroke-opacity="1.00" stroke-linejoin="miter"/>
<path d="M15.96,103.73 C16.96,103.73 17.87,103.65 18.70,103.49 C19.53,103.32 20.36,103.09 21.18,102.79 C21.18,102.79 21.18,105.31 21.18,105.31 C20.52,105.64 19.70,105.89 18.72,106.08 C17.74,106.27 16.69,106.37 15.56,106.37 C14.23,106.37 12.98,106.20 11.80,105.86 C10.64,105.52 9.62,104.97 8.75,104.21 C7.87,103.46 7.18,102.47 6.67,101.26 C6.18,100.03 5.93,98.55 5.93,96.83 C5.93,95.13 6.16,93.66 6.63,92.42 C7.10,91.17 7.73,90.13 8.51,89.29 C9.30,88.46 10.20,87.83 11.22,87.41 C12.23,86.99 13.30,86.78 14.41,86.78 C15.45,86.78 16.43,86.96 17.33,87.31 C18.24,87.65 19.03,88.19 19.70,88.94 C20.36,89.68 20.88,90.64 21.26,91.82 C21.65,92.99 21.85,94.40 21.85,96.05 C21.85,96.05 21.85,96.46 21.85,96.46 C21.85,96.46 21.84,96.81 21.83,97.20 C21.83,97.20 9.06,97.20 9.06,97.20 C9.06,98.39 9.24,99.40 9.59,100.24 C9.96,101.06 10.45,101.73 11.06,102.26 C11.69,102.77 12.42,103.14 13.25,103.37 C14.09,103.61 14.99,103.73 15.96,103.73 Z" fill="#fff" stroke="rgb(255, 255, 255)" stroke-width="0.10" stroke-opacity="1.00" stroke-linejoin="miter"/>
<path d="M14.29,89.39 C13.60,89.39 12.95,89.53 12.35,89.80 C11.76,90.07 11.25,90.45 10.80,90.92 C10.36,91.39 10.00,91.94 9.73,92.58 C9.45,93.21 9.28,93.88 9.22,94.60 C9.22,94.60 18.62,94.60 18.62,94.60 C18.62,93.87 18.52,93.19 18.33,92.56 C18.14,91.92 17.87,91.37 17.50,90.90 C17.14,90.43 16.69,90.06 16.15,89.80 C15.62,89.53 15.00,89.39 14.29,89.39 Z" fill="#294a6a" stroke="rgb(41, 74, 106)" stroke-width="0.10" stroke-opacity="1.00" stroke-linejoin="miter"/>
<path d="M40.50,105.88 C40.50,105.88 40.50,77.52 40.50,77.52 C40.50,77.52 43.53,77.52 43.53,77.52 C43.53,77.52 43.53,105.88 43.53,105.88 C43.53,105.88 40.50,105.88 40.50,105.88 Z" fill="#fff" stroke="rgb(255, 255, 255)" stroke-width="0.10" stroke-opacity="1.00" stroke-linejoin="miter"/>
<path d="M58.55,103.73 C59.56,103.73 60.47,103.65 61.30,103.49 C62.13,103.32 62.96,103.09 63.78,102.79 C63.78,102.79 63.78,105.31 63.78,105.31 C63.12,105.64 62.29,105.89 61.31,106.08 C60.34,106.27 59.28,106.37 58.16,106.37 C56.83,106.37 55.58,106.20 54.40,105.86 C53.24,105.52 52.22,104.97 51.35,104.21 C50.47,103.46 49.78,102.47 49.27,101.26 C48.77,100.03 48.53,98.55 48.53,96.83 C48.53,95.13 48.76,93.66 49.23,92.42 C49.70,91.17 50.33,90.13 51.11,89.29 C51.89,88.46 52.80,87.83 53.81,87.41 C54.83,86.99 55.90,86.78 57.01,86.78 C58.05,86.78 59.02,86.96 59.92,87.31 C60.84,87.65 61.63,88.19 62.29,88.94 C62.96,89.68 63.48,90.64 63.86,91.82 C64.25,92.99 64.45,94.40 64.45,96.05 C64.45,96.05 64.45,96.46 64.45,96.46 C64.45,96.46 64.44,96.81 64.43,97.20 C64.43,97.20 51.66,97.20 51.66,97.20 C51.66,98.39 51.84,99.40 52.19,100.24 C52.55,101.06 53.04,101.73 53.66,102.26 C54.28,102.77 55.01,103.14 55.85,103.37 C56.69,103.61 57.59,103.73 58.55,103.73 Z" fill="#fff" stroke="rgb(255, 255, 255)" stroke-width="0.10" stroke-opacity="1.00" stroke-linejoin="miter"/>
<path d="M56.89,89.39 C56.20,89.39 55.55,89.53 54.95,89.80 C54.36,90.07 53.85,90.45 53.40,90.92 C52.96,91.39 52.60,91.94 52.33,92.58 C52.05,93.21 51.88,93.88 51.82,94.60 C51.82,94.60 61.22,94.60 61.22,94.60 C61.22,93.87 61.12,93.19 60.92,92.56 C60.74,91.92 60.47,91.37 60.10,90.90 C59.74,90.43 59.28,90.06 58.75,89.80 C58.21,89.53 57.59,89.39 56.89,89.39 Z" fill="#294a6a" stroke="rgb(41, 74, 106)" stroke-width="0.10" stroke-opacity="1.00" stroke-linejoin="miter"/>
<path d="M80.45,103.82 C80.45,103.82 80.37,103.82 80.37,103.82 C80.12,104.14 79.81,104.45 79.43,104.76 C79.05,105.06 78.62,105.34 78.12,105.59 C77.62,105.82 77.08,106.01 76.49,106.15 C75.91,106.30 75.28,106.37 74.61,106.37 C73.71,106.37 72.88,106.23 72.13,105.96 C71.38,105.70 70.74,105.31 70.19,104.80 C69.65,104.28 69.23,103.65 68.93,102.90 C68.63,102.16 68.48,101.32 68.48,100.38 C68.48,99.45 68.65,98.62 68.97,97.89 C69.31,97.16 69.78,96.54 70.38,96.03 C70.98,95.52 71.70,95.13 72.54,94.85 C73.39,94.58 74.32,94.44 75.34,94.44 C76.30,94.45 77.20,94.54 78.02,94.70 C78.84,94.85 79.57,95.05 80.21,95.28 C80.21,95.28 80.29,95.28 80.29,95.28 C80.29,95.28 80.29,93.99 80.29,93.99 C80.29,93.48 80.26,93.03 80.20,92.64 C80.13,92.25 80.02,91.90 79.86,91.60 C79.52,90.98 78.98,90.46 78.24,90.05 C77.49,89.64 76.49,89.43 75.22,89.43 C74.28,89.43 73.39,89.52 72.56,89.70 C71.73,89.87 70.91,90.11 70.09,90.43 C70.09,90.43 70.09,87.88 70.09,87.88 C70.40,87.72 70.77,87.58 71.19,87.45 C71.62,87.31 72.07,87.19 72.54,87.10 C73.01,86.99 73.50,86.91 74.03,86.86 C74.55,86.81 75.07,86.78 75.59,86.78 C77.47,86.78 79.01,87.12 80.20,87.78 C81.40,88.45 82.26,89.33 82.78,90.43 C82.98,90.84 83.11,91.31 83.19,91.82 C83.28,92.31 83.33,92.86 83.33,93.46 C83.33,93.46 83.33,105.88 83.33,105.88 C83.33,105.88 80.78,105.88 80.78,105.88 C80.78,105.88 80.45,103.82 80.45,103.82 Z" fill="#fff" stroke="rgb(255, 255, 255)" stroke-width="0.10" stroke-opacity="1.00" stroke-linejoin="miter"/>
<path d="M80.29,97.71 C79.73,97.56 79.07,97.41 78.30,97.26 C77.53,97.12 76.68,97.04 75.75,97.03 C74.46,97.03 73.44,97.30 72.71,97.85 C71.98,98.40 71.62,99.24 71.62,100.38 C71.62,100.95 71.71,101.45 71.89,101.88 C72.07,102.32 72.32,102.67 72.64,102.96 C72.96,103.24 73.34,103.44 73.77,103.59 C74.22,103.72 74.69,103.78 75.18,103.78 C75.83,103.78 76.44,103.69 77.00,103.51 C77.56,103.31 78.06,103.09 78.49,102.82 C78.94,102.56 79.31,102.30 79.61,102.04 C79.92,101.78 80.29,101.43 80.29,101.43 C80.29,101.43 80.29,97.71 80.29,97.71 Z" fill="#294a6a" stroke="rgb(41, 74, 106)" stroke-width="0.10" stroke-opacity="1.00" stroke-linejoin="miter"/>
<path d="M99.41,89.74 C99.41,89.74 99.17,89.74 99.17,89.74 C98.46,89.74 97.75,89.81 97.06,89.94 C96.37,90.07 95.71,90.27 95.10,90.54 C94.50,90.81 93.95,91.13 93.45,91.52 C92.97,91.92 92.57,92.38 92.24,92.91 C92.24,92.91 92.24,105.88 92.24,105.88 C92.24,105.88 89.20,105.88 89.20,105.88 C89.20,105.88 89.20,87.27 89.20,87.27 C89.20,87.27 91.55,87.27 91.55,87.27 C91.55,87.27 92.14,90.23 92.14,90.23 C92.14,90.23 92.20,90.23 92.20,90.23 C92.50,89.75 92.87,89.30 93.30,88.88 C93.74,88.46 94.24,88.10 94.79,87.78 C95.33,87.47 95.94,87.23 96.59,87.06 C97.24,86.88 97.93,86.78 98.64,86.78 C98.64,86.78 99.04,86.80 99.04,86.80 C99.04,86.80 99.41,86.82 99.41,86.82 C99.41,86.82 99.41,89.74 99.41,89.74 Z" fill="#fff" stroke="rgb(255, 255, 255)" stroke-width="0.10" stroke-opacity="1.00" stroke-linejoin="miter"/>
<path d="M105.58,89.86 C105.58,89.86 105.64,89.86 105.64,89.86 C105.98,89.43 106.35,89.03 106.75,88.66 C107.17,88.29 107.63,87.96 108.14,87.68 C108.65,87.40 109.21,87.18 109.81,87.02 C110.42,86.86 111.09,86.78 111.81,86.78 C112.65,86.78 113.45,86.90 114.20,87.14 C114.94,87.37 115.59,87.75 116.13,88.27 C116.68,88.79 117.11,89.48 117.43,90.33 C117.75,91.16 117.92,92.20 117.92,93.42 C117.92,93.42 117.92,105.88 117.92,105.88 C117.92,105.88 114.88,105.88 114.88,105.88 C114.88,105.88 114.88,93.91 114.88,93.91 C114.88,92.31 114.57,91.15 113.94,90.45 C113.33,89.74 112.43,89.39 111.24,89.39 C110.19,89.39 109.18,89.68 108.20,90.27 C107.22,90.84 106.38,91.64 105.68,92.66 C105.68,92.66 105.68,105.88 105.68,105.88 C105.68,105.88 102.64,105.88 102.64,105.88 C102.64,105.88 102.64,87.27 102.64,87.27 C102.64,87.27 104.99,87.27 104.99,87.27 C104.99,87.27 105.58,89.86 105.58,89.86 Z" fill="#fff" stroke="rgb(255, 255, 255)" stroke-width="0.10" stroke-opacity="1.00" stroke-linejoin="miter"/>
<path d="M123.99,105.88 C123.99,105.88 123.99,87.27 123.99,87.27 C123.99,87.27 127.02,87.27 127.02,87.27 C127.02,87.27 127.02,105.88 127.02,105.88 C127.02,105.88 123.99,105.88 123.99,105.88 Z" fill="#fff" stroke="rgb(255, 255, 255)" stroke-width="0.10" stroke-opacity="1.00" stroke-linejoin="miter"/>
<path d="M123.91,82.95 C123.91,82.95 123.91,79.56 123.91,79.56 C123.91,79.56 127.10,79.56 127.10,79.56 C127.10,79.56 127.10,82.95 127.10,82.95 C127.10,82.95 123.91,82.95 123.91,82.95 Z" fill="#fff" stroke="rgb(255, 255, 255)" stroke-width="0.10" stroke-opacity="1.00" stroke-linejoin="miter"/>
<path d="M136.03,89.86 C136.03,89.86 136.09,89.86 136.09,89.86 C136.43,89.43 136.80,89.03 137.21,88.66 C137.63,88.29 138.09,87.96 138.60,87.68 C139.11,87.40 139.66,87.18 140.26,87.02 C140.88,86.86 141.54,86.78 142.26,86.78 C143.11,86.78 143.91,86.90 144.65,87.14 C145.39,87.37 146.04,87.75 146.59,88.27 C147.14,88.79 147.57,89.48 147.88,90.33 C148.21,91.16 148.37,92.20 148.37,93.42 C148.37,93.42 148.37,105.88 148.37,105.88 C148.37,105.88 145.34,105.88 145.34,105.88 C145.34,105.88 145.34,93.91 145.34,93.91 C145.34,92.31 145.02,91.15 144.40,90.45 C143.78,89.74 142.88,89.39 141.69,89.39 C140.65,89.39 139.64,89.68 138.66,90.27 C137.68,90.84 136.84,91.64 136.13,92.66 C136.13,92.66 136.13,105.88 136.13,105.88 C136.13,105.88 133.09,105.88 133.09,105.88 C133.09,105.88 133.09,87.27 133.09,87.27 C133.09,87.27 135.45,87.27 135.45,87.27 C135.45,87.27 136.03,89.86 136.03,89.86 Z" fill="#fff" stroke="rgb(255, 255, 255)" stroke-width="0.10" stroke-opacity="1.00" stroke-linejoin="miter"/>
<path d="M161.45,86.78 C162.26,86.80 162.97,86.90 163.57,87.10 C164.17,87.29 164.69,87.54 165.12,87.84 C165.55,88.13 165.89,88.42 166.14,88.70 C166.40,88.99 166.66,89.39 166.66,89.39 C166.66,89.39 166.74,89.39 166.74,89.39 C166.74,89.39 167.37,87.27 167.37,87.27 C167.37,87.27 169.66,87.27 169.66,87.27 C169.66,87.27 169.66,106.98 169.66,106.98 C169.66,108.41 169.43,109.66 168.96,110.72 C168.49,111.79 167.83,112.68 166.98,113.38 C166.13,114.09 165.10,114.61 163.90,114.95 C162.71,115.30 161.40,115.48 159.95,115.48 C158.72,115.48 157.62,115.37 156.66,115.14 C155.69,114.93 154.93,114.68 154.38,114.38 C154.38,114.38 154.38,111.81 154.38,111.81 C154.83,112.00 155.26,112.15 155.68,112.26 C156.09,112.39 156.53,112.50 156.97,112.58 C157.41,112.67 157.86,112.73 158.32,112.77 C158.79,112.81 159.31,112.83 159.87,112.83 C162.05,112.83 163.72,112.32 164.88,111.30 C166.04,110.29 166.62,108.73 166.62,106.64 C166.62,106.64 166.62,104.16 166.62,104.16 C166.62,104.16 166.57,104.16 166.57,104.16 C165.90,104.89 165.12,105.44 164.24,105.82 C163.36,106.19 162.36,106.37 161.22,106.37 C160.70,106.37 160.14,106.31 159.54,106.19 C158.93,106.08 158.33,105.88 157.73,105.61 C157.13,105.32 156.56,104.95 156.01,104.49 C155.46,104.02 154.98,103.44 154.56,102.75 C154.14,102.04 153.80,101.21 153.54,100.26 C153.29,99.31 153.17,98.20 153.17,96.95 C153.17,95.21 153.40,93.71 153.87,92.44 C154.34,91.16 154.97,90.11 155.74,89.27 C156.51,88.44 157.39,87.82 158.38,87.41 C159.37,86.99 160.40,86.78 161.45,86.78 Z" fill="#fff" stroke="rgb(255, 255, 255)" stroke-width="0.10" stroke-opacity="1.00" stroke-linejoin="miter"/>
<path d="M156.34,96.69 C156.34,98.16 156.52,99.35 156.87,100.28 C157.22,101.21 157.67,101.93 158.20,102.45 C158.75,102.96 159.35,103.31 159.99,103.51 C160.63,103.69 161.23,103.78 161.81,103.78 C162.75,103.78 163.63,103.59 164.45,103.22 C165.27,102.84 166.00,102.32 166.62,101.67 C166.62,101.67 166.62,91.93 166.62,91.93 C166.62,91.93 166.22,91.43 165.92,91.13 C165.62,90.83 165.27,90.56 164.86,90.31 C164.47,90.05 164.02,89.83 163.51,89.66 C163.00,89.48 162.45,89.39 161.85,89.39 C160.95,89.39 160.15,89.57 159.46,89.94 C158.78,90.29 158.20,90.79 157.73,91.43 C157.28,92.07 156.93,92.84 156.70,93.74 C156.46,94.62 156.34,95.61 156.34,96.69 Z" fill="#294a6a" stroke="rgb(41, 74, 106)" stroke-width="0.10" stroke-opacity="1.00" stroke-linejoin="miter"/>
<path d="M185.52,92.23 C185.52,92.74 185.64,93.16 185.86,93.48 C186.08,93.81 186.37,94.08 186.74,94.29 C187.12,94.48 187.55,94.64 188.03,94.77 C188.53,94.91 189.04,95.02 189.56,95.13 C190.28,95.28 190.96,95.46 191.60,95.66 C192.24,95.84 192.82,96.12 193.36,96.50 C193.91,96.88 194.34,97.39 194.67,98.05 C195.01,98.69 195.18,99.52 195.18,100.55 C195.18,101.49 195.00,102.33 194.63,103.06 C194.27,103.78 193.75,104.38 193.08,104.88 C192.42,105.36 191.62,105.73 190.70,105.98 C189.77,106.24 188.75,106.37 187.64,106.37 C186.96,106.37 186.34,106.33 185.78,106.25 C185.23,106.19 184.74,106.10 184.31,105.98 C183.89,105.87 183.53,105.76 183.23,105.64 C182.93,105.53 182.49,105.31 182.49,105.31 C182.49,105.31 182.49,102.77 182.49,102.77 C183.27,103.08 184.05,103.33 184.82,103.51 C185.59,103.69 186.44,103.78 187.37,103.78 C188.10,103.78 188.76,103.72 189.34,103.59 C189.93,103.46 190.43,103.27 190.85,103.02 C191.28,102.76 191.61,102.44 191.83,102.06 C192.07,101.67 192.18,101.22 192.18,100.71 C192.18,100.19 192.08,99.76 191.87,99.42 C191.66,99.08 191.38,98.80 191.03,98.57 C190.68,98.35 190.26,98.17 189.79,98.03 C189.34,97.88 188.85,97.75 188.34,97.63 C187.68,97.49 187.00,97.32 186.31,97.13 C185.63,96.93 185.01,96.65 184.45,96.30 C183.89,95.95 183.43,95.47 183.08,94.87 C182.74,94.26 182.57,93.48 182.57,92.52 C182.57,91.54 182.74,90.69 183.10,89.98 C183.45,89.26 183.93,88.66 184.53,88.19 C185.13,87.72 185.82,87.37 186.62,87.14 C187.42,86.90 188.26,86.78 189.15,86.78 C190.18,86.78 191.13,86.88 192.01,87.08 C192.90,87.27 193.70,87.52 194.42,87.82 C194.42,87.82 194.42,90.41 194.42,90.41 C193.63,90.11 192.84,89.87 192.03,89.68 C191.23,89.49 190.41,89.38 189.56,89.37 C188.84,89.37 188.23,89.44 187.72,89.58 C187.21,89.73 186.79,89.93 186.46,90.19 C186.14,90.44 185.90,90.74 185.74,91.09 C185.60,91.43 185.52,91.81 185.52,92.23 Z" fill="#fff" stroke="rgb(255, 255, 255)" stroke-width="0.10" stroke-opacity="1.00" stroke-linejoin="miter"/>
<path d="M197.43,87.27 C197.43,87.27 200.55,87.27 200.55,87.27 C200.55,87.27 206.32,101.86 206.32,101.86 C206.32,101.86 206.44,101.86 206.44,101.86 C206.44,101.86 212.30,87.27 212.30,87.27 C212.30,87.27 215.49,87.27 215.49,87.27 C215.49,87.27 203.88,114.99 203.88,114.99 C203.88,114.99 200.86,114.99 200.86,114.99 C200.86,114.99 204.84,105.51 204.84,105.51 C204.84,105.51 197.43,87.27 197.43,87.27 Z" fill="#fff" stroke="rgb(255, 255, 255)" stroke-width="0.10" stroke-opacity="1.00" stroke-linejoin="miter"/>
<path d="M220.97,92.23 C220.97,92.74 221.08,93.16 221.31,93.48 C221.53,93.81 221.82,94.08 222.19,94.29 C222.57,94.48 223.00,94.64 223.48,94.77 C223.98,94.91 224.49,95.02 225.01,95.13 C225.73,95.28 226.41,95.46 227.05,95.66 C227.69,95.84 228.27,96.12 228.81,96.50 C229.36,96.88 229.79,97.39 230.12,98.05 C230.46,98.69 230.63,99.52 230.63,100.55 C230.63,101.49 230.45,102.33 230.08,103.06 C229.72,103.78 229.20,104.38 228.53,104.88 C227.87,105.36 227.07,105.73 226.14,105.98 C225.22,106.24 224.20,106.37 223.09,106.37 C222.41,106.37 221.79,106.33 221.23,106.25 C220.68,106.19 220.19,106.10 219.76,105.98 C219.34,105.87 218.98,105.76 218.68,105.64 C218.38,105.53 217.94,105.31 217.94,105.31 C217.94,105.31 217.94,102.77 217.94,102.77 C218.72,103.08 219.50,103.33 220.27,103.51 C221.04,103.69 221.89,103.78 222.82,103.78 C223.55,103.78 224.21,103.72 224.79,103.59 C225.38,103.46 225.88,103.27 226.30,103.02 C226.73,102.76 227.06,102.44 227.28,102.06 C227.52,101.67 227.63,101.22 227.63,100.71 C227.63,100.19 227.53,99.76 227.32,99.42 C227.11,99.08 226.83,98.80 226.48,98.57 C226.12,98.35 225.71,98.17 225.24,98.03 C224.79,97.88 224.30,97.75 223.79,97.63 C223.13,97.49 222.45,97.32 221.76,97.13 C221.08,96.93 220.46,96.65 219.90,96.30 C219.34,95.95 218.88,95.47 218.53,94.87 C218.19,94.26 218.02,93.48 218.02,92.52 C218.02,91.54 218.19,90.69 218.55,89.98 C218.90,89.26 219.37,88.66 219.98,88.19 C220.58,87.72 221.27,87.37 222.07,87.14 C222.87,86.90 223.71,86.78 224.60,86.78 C225.63,86.78 226.58,86.88 227.46,87.08 C228.34,87.27 229.15,87.52 229.87,87.82 C229.87,87.82 229.87,90.41 229.87,90.41 C229.08,90.11 228.29,89.87 227.48,89.68 C226.68,89.49 225.86,89.38 225.01,89.37 C224.29,89.37 223.68,89.44 223.17,89.58 C222.66,89.73 222.24,89.93 221.91,90.19 C221.59,90.44 221.35,90.74 221.19,91.09 C221.05,91.43 220.97,91.81 220.97,92.23 Z" fill="#fff" stroke="rgb(255, 255, 255)" stroke-width="0.10" stroke-opacity="1.00" stroke-linejoin="miter"/>
<path d="M245.04,105.92 C245.04,105.92 244.38,106.12 243.85,106.21 C243.31,106.30 242.67,106.36 241.93,106.37 C240.95,106.37 240.10,106.25 239.38,106.00 C238.67,105.76 238.07,105.42 237.58,104.98 C237.11,104.52 236.76,103.97 236.52,103.33 C236.29,102.69 236.17,101.98 236.17,101.20 C236.17,101.20 236.17,89.88 236.17,89.88 C236.17,89.88 232.59,89.88 232.59,89.88 C232.59,89.88 232.59,87.27 232.59,87.27 C232.59,87.27 236.17,87.27 236.17,87.27 C236.17,87.27 236.17,82.18 236.17,82.18 C236.17,82.18 239.21,82.18 239.21,82.18 C239.21,82.18 239.21,87.27 239.21,87.27 C239.21,87.27 244.77,87.27 244.77,87.27 C244.77,87.27 244.77,89.88 244.77,89.88 C244.77,89.88 239.21,89.88 239.21,89.88 C239.21,89.88 239.21,100.73 239.21,100.73 C239.21,101.16 239.27,101.56 239.38,101.92 C239.51,102.29 239.71,102.61 239.97,102.88 C240.25,103.14 240.59,103.35 241.01,103.51 C241.43,103.65 241.93,103.73 242.52,103.73 C242.92,103.73 243.35,103.69 243.79,103.63 C244.25,103.56 244.67,103.48 245.04,103.37 C245.04,103.37 245.04,105.92 245.04,105.92 Z" fill="#fff" stroke="rgb(255, 255, 255)" stroke-width="0.10" stroke-opacity="1.00" stroke-linejoin="miter"/>
<path d="M258.11,103.73 C259.11,103.73 260.03,103.65 260.85,103.49 C261.69,103.32 262.51,103.09 263.34,102.79 C263.34,102.79 263.34,105.31 263.34,105.31 C262.67,105.64 261.85,105.89 260.87,106.08 C259.89,106.27 258.84,106.37 257.72,106.37 C256.38,106.37 255.13,106.20 253.96,105.86 C252.79,105.52 251.78,104.97 250.90,104.21 C250.03,103.46 249.33,102.47 248.82,101.26 C248.33,100.03 248.08,98.55 248.08,96.83 C248.08,95.13 248.32,93.66 248.79,92.42 C249.26,91.17 249.88,90.13 250.67,89.29 C251.45,88.46 252.35,87.83 253.37,87.41 C254.39,86.99 255.45,86.78 256.56,86.78 C257.60,86.78 258.58,86.96 259.48,87.31 C260.39,87.65 261.18,88.19 261.85,88.94 C262.51,89.68 263.04,90.64 263.42,91.82 C263.81,92.99 264.00,94.40 264.00,96.05 C264.00,96.05 264.00,96.46 264.00,96.46 C264.00,96.46 264.00,96.81 263.98,97.20 C263.98,97.20 251.21,97.20 251.21,97.20 C251.21,98.39 251.39,99.40 251.74,100.24 C252.11,101.06 252.60,101.73 253.21,102.26 C253.84,102.77 254.57,103.14 255.40,103.37 C256.24,103.61 257.14,103.73 258.11,103.73 Z" fill="#fff" stroke="rgb(255, 255, 255)" stroke-width="0.10" stroke-opacity="1.00" stroke-linejoin="miter"/>
<path d="M256.44,89.39 C255.75,89.39 255.10,89.53 254.50,89.80 C253.92,90.07 253.40,90.45 252.96,90.92 C252.51,91.39 252.15,91.94 251.88,92.58 C251.61,93.21 251.44,93.88 251.37,94.60 C251.37,94.60 260.77,94.60 260.77,94.60 C260.77,93.87 260.67,93.19 260.48,92.56 C260.29,91.92 260.02,91.37 259.65,90.90 C259.29,90.43 258.84,90.06 258.30,89.80 C257.77,89.53 257.15,89.39 256.44,89.39 Z" fill="#294a6a" stroke="rgb(41, 74, 106)" stroke-width="0.10" stroke-opacity="1.00" stroke-linejoin="miter"/>
<path d="M284.31,105.88 C284.31,105.88 281.28,105.88 281.28,105.88 C281.28,105.88 281.28,93.91 281.28,93.91 C281.28,93.10 281.19,92.42 281.00,91.86 C280.83,91.28 280.58,90.81 280.24,90.45 C279.91,90.08 279.51,89.81 279.04,89.64 C278.59,89.47 278.07,89.39 277.50,89.39 C276.41,89.39 275.43,89.68 274.54,90.27 C273.65,90.84 272.86,91.64 272.15,92.66 C272.15,92.66 272.15,105.88 272.15,105.88 C272.15,105.88 269.11,105.88 269.11,105.88 C269.11,105.88 269.11,87.27 269.11,87.27 C269.11,87.27 271.46,87.27 271.46,87.27 C271.46,87.27 272.05,89.86 272.05,89.86 C272.05,89.86 272.11,89.86 272.11,89.86 C272.45,89.43 272.82,89.03 273.21,88.66 C273.61,88.29 274.06,87.96 274.54,87.68 C275.04,87.40 275.58,87.18 276.17,87.02 C276.75,86.86 277.39,86.78 278.08,86.78 C279.47,86.78 280.62,87.12 281.53,87.78 C282.45,88.45 283.15,89.36 283.65,90.51 C283.65,90.51 283.73,90.51 283.73,90.51 C284.55,89.34 285.49,88.44 286.55,87.78 C287.60,87.12 288.84,86.78 290.25,86.78 C290.90,86.78 291.59,86.88 292.32,87.06 C293.05,87.24 293.73,87.58 294.34,88.08 C294.95,88.56 295.46,89.23 295.87,90.09 C296.27,90.96 296.48,92.07 296.48,93.42 C296.48,93.42 296.48,105.88 296.48,105.88 C296.48,105.88 293.46,105.88 293.46,105.88 C293.46,105.88 293.46,93.91 293.46,93.91 C293.46,93.10 293.37,92.42 293.18,91.86 C293.02,91.28 292.76,90.81 292.42,90.45 C292.09,90.08 291.70,89.81 291.23,89.64 C290.77,89.47 290.25,89.39 289.68,89.39 C288.60,89.39 287.60,89.68 286.70,90.27 C285.81,90.84 285.02,91.64 284.31,92.66 C284.31,92.66 284.31,105.88 284.31,105.88 Z" fill="#fff" stroke="rgb(255, 255, 255)" stroke-width="0.10" stroke-opacity="1.00" stroke-linejoin="miter"/>
</g>
</svg>
