<?xml version="1.0" encoding="UTF-8" standalone="no"?>
<svg
   xmlns:dc="http://purl.org/dc/elements/1.1/"
   xmlns:cc="http://creativecommons.org/ns#"
   xmlns:rdf="http://www.w3.org/1999/02/22-rdf-syntax-ns#"
   xmlns:svg="http://www.w3.org/2000/svg"
   xmlns="http://www.w3.org/2000/svg"
   xmlns:sodipodi="http://sodipodi.sourceforge.net/DTD/sodipodi-0.dtd"
   xmlns:inkscape="http://www.inkscape.org/namespaces/inkscape"
   width="100"
   height="100"
   viewBox="0 0 26.458333 26.458333"
   version="1.1"
   id="svg8"
   inkscape:version="1.0.2-2 (e86c870879, 2021-01-15)"
   sodipodi:docname="manamoa_logo_.svg">
  <defs
     id="defs2" />
  <sodipodi:namedview
     id="base"
     pagecolor="#ffffff"
     bordercolor="#666666"
     borderopacity="1.0"
     inkscape:pageopacity="0.0"
     inkscape:pageshadow="2"
     inkscape:zoom="8"
     inkscape:cx="90.490683"
     inkscape:cy="42.264674"
     inkscape:document-units="px"
     inkscape:current-layer="layer4"
     inkscape:document-rotation="0"
     showgrid="true"
     units="px"
     inkscape:window-width="2400"
     inkscape:window-height="1271"
     inkscape:window-x="2391"
     inkscape:window-y="-9"
     inkscape:window-maximized="1">
    <inkscape:grid
       type="xygrid"
       id="grid1394" />
  </sodipodi:namedview>
  <metadata
     id="metadata5">
    <rdf:RDF>
      <cc:Work
         rdf:about="">
        <dc:format>image/svg+xml</dc:format>
        <dc:type
           rdf:resource="http://purl.org/dc/dcmitype/StillImage" />
        <dc:title></dc:title>
      </cc:Work>
    </rdf:RDF>
  </metadata>
  <g
     inkscape:groupmode="layer"
     id="layer2"
     inkscape:label="レイヤー 2"
     style="display:inline;opacity:1">
    <rect
       style="fill:#294a6a;fill-opacity:1;fill-rule:evenodd;stroke-width:0.199;stroke-miterlimit:4;stroke-dasharray:none"
       id="rect1443"
       width="15.91945"
       height="11.244792"
       x="2.6458333"
       y="2.3151035"
       ry="0.33032376" />
    <path
       style="fill:#294a6a;fill-opacity:1;stroke:#294a6a;stroke-width:0.271236;stroke-linecap:butt;stroke-linejoin:miter;stroke-miterlimit:4;stroke-dasharray:none;stroke-opacity:1"
       d="m 2.9765624,13.890625 2.6458334,7.276041 H 21.497396 l -2.976563,-7.276041 z"
       id="path1482"
       sodipodi:nodetypes="ccccc" />
  </g>
  <g
     inkscape:groupmode="layer"
     id="layer5"
     inkscape:label="レイヤー 4">
    <rect
       style="fill:#ffffff;fill-rule:evenodd;stroke-width:0.264583;fill-opacity:1"
       id="rect1581"
       width="14.552083"
       height="9.921875"
       x="3.3072915"
       y="2.9765625"
       ry="0.33032432" />
  </g>
  <g
     inkscape:groupmode="layer"
     id="layer6"
     inkscape:label="レイヤー 5">
    <path
       style="fill:none;stroke:#294a6a;stroke-width:0.264583px;stroke-linecap:butt;stroke-linejoin:miter;stroke-opacity:1"
       d="M 8.9296874,4.9609374 H 16.536458 Z"
       id="path1736" />
    <path
       style="fill:none;stroke:#294a6a;stroke-width:0.264583px;stroke-linecap:butt;stroke-linejoin:miter;stroke-opacity:1"
       d="M 8.9296874,5.9531249 H 16.536458 Z"
       id="path1736-3" />
    <path
       style="fill:none;stroke:#294a6a;stroke-width:0.264583px;stroke-linecap:butt;stroke-linejoin:miter;stroke-opacity:1"
       d="M 8.9296874,6.9453124 H 16.536458 Z"
       id="path1736-7" />
    <path
       style="fill:none;stroke:#294a6a;stroke-width:0.264583px;stroke-linecap:butt;stroke-linejoin:miter;stroke-opacity:1"
       d="M 8.9296874,7.9374999 H 16.536458 Z"
       id="path1736-33" />
    <rect
       style="fill:#294a6a;fill-opacity:1;fill-rule:evenodd;stroke-width:0.158;stroke:#294a6a;stroke-opacity:1;stroke-miterlimit:4;stroke-dasharray:none"
       id="rect1778"
       width="2.6458333"
       height="0.59169233"
       x="3.96875"
       y="11.90625"
       ry="0.29584616" />
    <rect
       style="fill:#ffffff;fill-opacity:1;fill-rule:evenodd;stroke-width:0.206;stroke:#294a6a;stroke-opacity:1;stroke-miterlimit:4;stroke-dasharray:none"
       id="rect1778-3"
       width="9.9065189"
       height="0.59169233"
       x="6.6299386"
       y="11.90625"
       ry="0.29584616" />
  </g>
  <g
     inkscape:groupmode="layer"
     id="layer4"
     inkscape:label="レイヤー 3"
     style="display:inline;opacity:1">
    <path
       style="fill:#294a6a;fill-opacity:1;stroke:#ffffff;stroke-width:0.433;stroke-miterlimit:4;stroke-dasharray:none;stroke-opacity:1"
       d="m 14.312584,25.560203 c 0,-0.01819 -0.02977,-0.03307 -0.06615,-0.03307 -0.03638,0 -0.06615,-0.0089 -0.06615,-0.01969 0,-0.01083 0.117446,-0.468476 0.26099,-1.016993 0.143544,-0.548516 0.390347,-1.503318 0.548451,-2.121782 0.315388,-1.233723 0.296121,-1.162629 0.58261,-2.14974 0.484723,-1.670128 0.926767,-2.550406 1.461589,-2.910576 l 0.163984,-0.110436 -0.170459,-0.08638 c -0.263352,-0.13345 -0.521817,-0.304601 -0.835903,-0.553521 -1.599695,-1.267793 -2.191934,-3.449539 -1.459953,-5.378324 0.271821,-0.716255 0.697177,-1.3235315 1.338272,-1.9106385 0.347601,-0.3183281 1.078325,-0.7262987 1.616149,-0.9023117 0.963281,-0.3152518 2.158794,-0.3031376 3.042708,0.030832 0.100046,0.0378 0.22655,0.085227 0.28112,0.1053917 0.09599,0.035471 0.35948,0.170438 0.624734,0.3200064 0.390488,0.2201841 0.969003,0.7465039 1.290399,1.1739732 0.461722,0.6141109 0.72116,1.1858019 0.886628,1.9537509 0.09518,0.44172 0.101358,1.338889 0.0123,1.785035 -0.255197,1.278447 -0.976115,2.36851 -2.036848,3.079811 -0.136426,0.09148 -0.356516,0.220507 -0.489089,0.286718 l -0.241043,0.120385 0.09221,0.05717 c 0.14068,0.08722 0.41598,0.378041 0.563191,0.594946 0.469781,0.692189 0.80624,1.6885 1.595795,4.725413 0.113499,0.436563 0.28797,1.098848 0.387711,1.471745 0.310072,1.159251 0.342091,1.301295 0.299299,1.327742 -0.02125,0.01314 -0.05052,0.01654 -0.06503,0.0076 -0.01451,-0.009 -0.02638,0.02922 -0.02638,0.08486 v 0.101171 h -4.79557 c -3.175,0 -4.795573,-0.01118 -4.795573,-0.03307 z"
       id="path1554" />
    <path
       style="fill:#294a6a;fill-opacity:1;stroke:#ffffff;stroke-width:0.169599;stroke-miterlimit:4;stroke-dasharray:none;stroke-opacity:1"
       d="m 3.96875,11.360159 c 0,-0.0071 -0.01166,-0.01295 -0.025911,-0.01295 -0.014249,0 -0.02591,-0.0035 -0.02591,-0.0077 0,-0.0042 0.046001,-0.183495 0.1022255,-0.39834 0.056224,-0.214845 0.1528924,-0.588825 0.2148191,-0.831066 C 4.3575064,9.626854 4.3499598,9.6546994 4.4621728,9.2680644 4.6520308,8.6139031 4.825172,8.269113 5.034653,8.1280398 L 5.098883,8.0847838 5.032117,8.0509508 C 4.928967,7.9986853 4.8277305,7.9316487 4.7047082,7.8341509 4.0781342,7.3375766 3.846164,6.4830229 4.1328689,5.7275499 4.2393367,5.4470045 4.4059414,5.2091442 4.6570478,4.9791843 4.7931973,4.8545011 5.0794098,4.6947053 5.2900665,4.6257641 c 0.3773013,-0.1234793 0.8455639,-0.1187347 1.1917784,0.01208 0.039186,0.014807 0.088736,0.033381 0.11011,0.041281 0.037597,0.013894 0.1408024,0.066753 0.2446981,0.1253418 0.1529476,0.086241 0.3795423,0.2923932 0.5054278,0.4598257 0.1808489,0.2405368 0.2824664,0.464459 0.3472775,0.7652517 0.03728,0.1730142 0.0397,0.5244204 0.00482,0.6991687 C 7.5942223,7.2294589 7.311851,7.6564185 6.8963795,7.9350232 6.842943,7.970851 6.7567381,8.021394 6.7048113,8.0473261 l -0.094412,0.047155 0.036117,0.022394 c 0.055102,0.034163 0.1629326,0.1480722 0.2205927,0.2330304 0.1840054,0.2711184 0.3157908,0.6613583 0.6250465,1.8508665 0.044456,0.170995 0.1127931,0.4304 0.1518599,0.576458 0.1214502,0.45406 0.1339914,0.509696 0.1172304,0.520054 -0.00832,0.0051 -0.019788,0.0066 -0.025471,0.003 -0.00569,-0.0035 -0.010332,0.01145 -0.010332,0.03324 v 0.03962 H 5.8470933 c -1.2435949,0 -1.8783465,-0.0044 -1.8783465,-0.01295 z"
       id="path1554-2" />
    <circle
       style="fill:#ffffff;fill-opacity:1;stroke:#294a6a;stroke-width:0.193619;stroke-miterlimit:4;stroke-dasharray:none;stroke-opacity:1"
       id="path1793"
       cx="6.6588931"
       cy="12.176642"
       r="0.44469163" />
  </g>
</svg>
