<?xml version="1.0" encoding="UTF-8" standalone="no"?>
<!DOCTYPE svg PUBLIC "-//W3C//DTD SVG 1.1//EN" "http://www.w3.org/Graphics/SVG/1.1/DTD/svg11.dtd">
<svg width="800.00" height="100.00" viewBox="0.00 0.00 800.00 100.00" xmlns="http://www.w3.org/2000/svg" xmlns:xlink="http://www.w3.org/1999/xlink">
<g stroke-linecap="round" id="CL_login2">
<path d="M80.51,92.80 C80.51,92.80 32.08,92.91 32.08,92.91 C32.08,92.91 7.77,50.12 7.77,50.12 C7.77,50.12 31.88,7.20 31.88,7.20 C31.88,7.20 80.31,7.09 80.31,7.09 C80.31,7.09 104.62,49.88 104.62,49.88 C104.62,49.88 80.51,92.80 80.51,92.80 Z" fill="#fff" stroke="rgb(255, 255, 255)" stroke-width="0.10" stroke-opacity="1.00" stroke-linejoin="miter"/>
<path d="M55.64,65.94 C53.99,67.84 52.02,69.32 49.73,70.40 C47.43,71.48 44.93,72.02 42.22,72.02 C39.51,72.02 37.01,71.49 34.71,70.43 C32.44,69.37 30.46,67.88 28.77,65.97 C27.09,64.03 25.78,61.77 24.85,59.18 C23.92,56.57 23.45,53.73 23.45,50.66 C23.45,47.58 23.92,44.74 24.85,42.15 C25.78,39.54 27.09,37.27 28.77,35.36 C30.46,33.44 32.44,31.95 34.71,30.90 C37.01,29.84 39.51,29.31 42.22,29.31 C44.91,29.31 47.41,29.85 49.70,30.92 C52.00,31.98 53.97,33.46 55.62,35.36 C55.62,35.36 52.66,38.78 52.66,38.78 C51.38,37.16 49.84,35.89 48.04,34.97 C46.25,34.04 44.28,33.58 42.15,33.58 C40.08,33.58 38.17,34.01 36.42,34.87 C34.67,35.70 33.15,36.90 31.85,38.45 C30.57,39.98 29.57,41.79 28.84,43.87 C28.14,45.95 27.78,48.22 27.78,50.66 C27.78,53.13 28.14,55.40 28.84,57.48 C29.57,59.54 30.57,61.35 31.85,62.90 C33.15,64.43 34.67,65.63 36.42,66.49 C38.17,67.33 40.08,67.75 42.15,67.75 C44.28,67.75 46.25,67.29 48.04,66.38 C49.84,65.45 51.38,64.17 52.66,62.54 C52.66,62.54 55.64,65.94 55.64,65.94 Z" fill="#000" stroke="rgb(0, 0, 0)" stroke-width="0.10" stroke-opacity="1.00" stroke-linejoin="miter"/>
<path d="M85.44,71.63 C85.44,71.63 62.44,71.63 62.44,71.63 C62.44,71.63 62.44,30.33 62.44,30.33 C62.44,30.33 66.84,30.33 66.84,30.33 C66.84,30.33 66.84,67.33 66.84,67.33 C66.84,67.33 85.44,67.33 85.44,67.33 C85.44,67.33 85.44,71.63 85.44,71.63 Z" fill="#000" stroke="rgb(0, 0, 0)" stroke-width="0.10" stroke-opacity="1.00" stroke-linejoin="miter"/>
<path d="M173.39,73.78 C170.78,76.69 167.67,78.98 164.05,80.63 C160.43,82.28 156.49,83.10 152.21,83.10 C147.94,83.10 143.99,82.29 140.37,80.67 C136.78,79.05 133.65,76.76 131.00,73.83 C128.34,70.86 126.28,67.39 124.81,63.41 C123.35,59.41 122.61,55.06 122.61,50.36 C122.61,45.62 123.35,41.27 124.81,37.30 C126.28,33.29 128.34,29.82 131.00,26.89 C133.65,23.95 136.78,21.66 140.37,20.04 C143.99,18.42 147.94,17.61 152.21,17.61 C156.46,17.61 160.40,18.43 164.01,20.08 C167.63,21.71 170.74,23.97 173.35,26.89 C173.35,26.89 168.68,32.13 168.68,32.13 C166.66,29.64 164.23,27.70 161.40,26.30 C158.56,24.87 155.46,24.16 152.10,24.16 C148.83,24.16 145.82,24.81 143.07,26.13 C140.31,27.42 137.91,29.25 135.86,31.63 C133.83,33.98 132.25,36.75 131.11,39.94 C130.00,43.13 129.44,46.60 129.44,50.36 C129.44,54.13 130.00,57.62 131.11,60.81 C132.25,63.97 133.83,66.74 135.86,69.12 C137.91,71.47 140.31,73.31 143.07,74.62 C145.82,75.91 148.83,76.55 152.10,76.55 C155.46,76.55 158.56,75.85 161.40,74.46 C164.23,73.03 166.66,71.07 168.68,68.58 C168.68,68.58 173.39,73.78 173.39,73.78 Z" fill="#fff" stroke="rgb(255, 255, 255)" stroke-width="0.10" stroke-opacity="1.00" stroke-linejoin="miter"/>
<path d="M189.86,81.84 C189.86,81.84 183.26,81.84 183.26,81.84 C183.26,81.84 183.26,17.19 183.26,17.19 C183.26,17.19 189.86,17.19 189.86,17.19 C189.86,17.19 189.86,81.84 189.86,81.84 Z" fill="#fff" stroke="rgb(255, 255, 255)" stroke-width="0.10" stroke-opacity="1.00" stroke-linejoin="miter"/>
<path d="M218.47,82.68 C214.70,82.68 211.31,81.73 208.30,79.83 C205.29,77.93 202.91,75.34 201.17,72.06 C199.45,68.76 198.59,65.02 198.59,60.85 C198.59,56.71 199.45,53.00 201.17,49.73 C202.91,46.42 205.29,43.82 208.30,41.92 C211.31,39.98 214.70,39.02 218.47,39.02 C222.24,39.02 225.62,39.98 228.61,41.92 C231.59,43.82 233.94,46.42 235.66,49.73 C237.38,53.00 238.24,56.71 238.24,60.85 C238.24,65.02 237.38,68.76 235.66,72.06 C233.94,75.34 231.59,77.93 228.61,79.83 C225.62,81.73 222.24,82.68 218.47,82.68 Z" fill="#fff" stroke="rgb(255, 255, 255)" stroke-width="0.10" stroke-opacity="1.00" stroke-linejoin="miter"/>
<path d="M218.43,76.47 C220.99,76.47 223.28,75.78 225.30,74.41 C227.33,73.04 228.92,71.18 230.09,68.83 C231.27,66.48 231.87,63.80 231.87,60.81 C231.87,57.87 231.27,55.23 230.09,52.87 C228.92,50.52 227.33,48.66 225.30,47.29 C223.28,45.92 220.99,45.23 218.43,45.23 C215.88,45.23 213.58,45.92 211.53,47.29 C209.50,48.66 207.90,50.52 206.71,52.87 C205.54,55.23 204.96,57.87 204.96,60.81 C204.96,63.80 205.54,66.48 206.71,68.83 C207.90,71.18 209.50,73.04 211.53,74.41 C213.58,75.78 215.88,76.47 218.43,76.47 Z" fill="#808080" stroke="rgb(128, 128, 128)" stroke-width="0.10" stroke-opacity="1.00" stroke-linejoin="miter"/>
<path d="M281.73,81.84 C281.73,81.84 276.27,81.84 276.27,81.84 C276.27,81.84 276.04,75.04 276.04,75.04 C274.65,77.51 272.82,79.40 270.54,80.71 C268.29,82.03 265.62,82.68 262.53,82.68 C257.50,82.68 253.51,81.01 250.58,77.65 C247.67,74.26 246.21,69.64 246.21,63.79 C246.21,63.79 246.21,39.86 246.21,39.86 C246.21,39.86 252.44,39.86 252.44,39.86 C252.44,39.86 252.44,63.29 252.44,63.29 C252.44,67.26 253.45,70.44 255.47,72.82 C257.52,75.20 260.24,76.39 263.63,76.39 C267.17,76.39 270.03,75.10 272.21,72.52 C274.41,69.95 275.51,66.59 275.51,62.45 C275.51,62.45 275.51,39.86 275.51,39.86 C275.51,39.86 281.73,39.86 281.73,39.86 C281.73,39.86 281.73,81.84 281.73,81.84 Z" fill="#fff" stroke="rgb(255, 255, 255)" stroke-width="0.10" stroke-opacity="1.00" stroke-linejoin="miter"/>
<path d="M330.54,81.84 C330.54,81.84 325.00,81.84 325.00,81.84 C325.00,81.84 324.66,75.72 324.66,75.72 C322.91,77.87 320.78,79.58 318.28,80.84 C315.78,82.07 313.04,82.68 310.08,82.68 C306.34,82.68 302.99,81.73 300.03,79.83 C297.07,77.93 294.73,75.32 293.01,72.02 C291.31,68.72 290.46,64.99 290.46,60.85 C290.46,56.68 291.31,52.96 293.01,49.68 C294.73,46.38 297.07,43.78 300.03,41.87 C302.99,39.97 306.34,39.02 310.08,39.02 C312.94,39.02 315.59,39.59 318.01,40.74 C320.47,41.89 322.57,43.48 324.31,45.53 C324.31,45.53 324.31,18.87 324.31,18.87 C324.31,18.87 330.54,18.87 330.54,18.87 C330.54,18.87 330.54,81.84 330.54,81.84 Z" fill="#fff" stroke="rgb(255, 255, 255)" stroke-width="0.10" stroke-opacity="1.00" stroke-linejoin="miter"/>
<path d="M310.61,76.47 C313.14,76.47 315.45,75.83 317.52,74.54 C319.60,73.22 321.24,71.45 322.45,69.21 C323.69,66.94 324.31,64.38 324.31,61.52 C324.31,61.52 324.31,60.10 324.31,60.10 C324.31,57.24 323.69,54.69 322.45,52.45 C321.24,50.19 319.60,48.41 317.52,47.12 C315.45,45.83 313.14,45.19 310.61,45.19 C307.98,45.19 305.63,45.88 303.56,47.25 C301.48,48.62 299.84,50.48 298.62,52.83 C297.43,55.18 296.84,57.84 296.84,60.81 C296.84,63.78 297.43,66.45 298.62,68.83 C299.84,71.18 301.48,73.04 303.56,74.41 C305.63,75.78 307.98,76.47 310.61,76.47 Z" fill="#808080" stroke="rgb(128, 128, 128)" stroke-width="0.10" stroke-opacity="1.00" stroke-linejoin="miter"/>
<path d="M377.22,81.84 C377.22,81.84 342.30,81.84 342.30,81.84 C342.30,81.84 342.30,18.87 342.30,18.87 C342.30,18.87 348.98,18.87 348.98,18.87 C348.98,18.87 348.98,75.30 348.98,75.30 C348.98,75.30 377.22,75.30 377.22,75.30 C377.22,75.30 377.22,81.84 377.22,81.84 Z" fill="#fff" stroke="rgb(255, 255, 255)" stroke-width="0.10" stroke-opacity="1.00" stroke-linejoin="miter"/>
<path d="M416.57,81.84 C416.57,81.84 411.22,81.84 411.22,81.84 C411.22,81.84 410.80,76.30 410.80,76.30 C409.41,78.29 407.64,79.86 405.49,81.01 C403.34,82.12 400.93,82.68 398.28,82.68 C395.55,82.68 393.10,82.10 390.95,80.92 C388.80,79.72 387.11,78.08 385.87,76.01 C384.65,73.94 384.05,71.59 384.05,68.96 C384.05,66.18 384.70,63.75 386.02,61.65 C387.36,59.52 389.17,57.86 391.45,56.65 C393.75,55.45 396.36,54.85 399.27,54.85 C401.16,54.85 403.10,55.11 405.07,55.65 C407.04,56.15 408.80,56.85 410.35,57.74 C410.35,57.74 410.35,55.98 410.35,55.98 C410.35,53.74 409.84,51.84 408.83,50.27 C407.82,48.68 406.46,47.46 404.77,46.62 C403.07,45.75 401.20,45.32 399.15,45.32 C397.38,45.32 395.57,45.68 393.72,46.41 C391.88,47.11 390.11,48.20 388.41,49.68 C388.41,49.68 386.36,43.76 386.36,43.76 C388.56,42.20 390.88,41.02 393.31,40.24 C395.74,39.42 398.14,39.02 400.52,39.02 C403.81,39.02 406.64,39.76 409.02,41.24 C411.42,42.70 413.28,44.79 414.60,47.50 C415.91,50.19 416.57,53.38 416.57,57.07 C416.57,57.07 416.57,81.84 416.57,81.84 Z" fill="#fff" stroke="rgb(255, 255, 255)" stroke-width="0.10" stroke-opacity="1.00" stroke-linejoin="miter"/>
<path d="M399.38,76.39 C401.33,76.39 403.11,75.94 404.73,75.04 C406.35,74.15 407.66,72.86 408.68,71.18 C409.69,69.47 410.25,67.46 410.35,65.13 C410.35,65.13 410.35,64.42 410.35,64.42 C408.95,63.22 407.39,62.29 405.64,61.65 C403.92,60.98 402.16,60.64 400.37,60.64 C397.56,60.64 395.20,61.40 393.31,62.91 C391.43,64.42 390.50,66.34 390.50,68.66 C390.50,70.12 390.88,71.43 391.64,72.61 C392.42,73.78 393.48,74.71 394.82,75.38 C396.17,76.05 397.68,76.39 399.38,76.39 Z" fill="#808080" stroke="rgb(128, 128, 128)" stroke-width="0.10" stroke-opacity="1.00" stroke-linejoin="miter"/>
<path d="M433.12,81.84 C433.12,81.84 427.58,81.84 427.58,81.84 C427.58,81.84 427.58,18.87 427.58,18.87 C427.58,18.87 433.80,18.87 433.80,18.87 C433.80,18.87 433.80,45.53 433.80,45.53 C435.57,43.48 437.67,41.89 440.10,40.74 C442.53,39.59 445.17,39.02 448.03,39.02 C451.77,39.02 455.11,39.97 458.05,41.87 C460.98,43.78 463.30,46.38 464.99,49.68 C466.71,52.96 467.57,56.68 467.57,60.85 C467.57,64.99 466.71,68.72 464.99,72.02 C463.30,75.32 460.98,77.93 458.05,79.83 C455.11,81.73 451.77,82.68 448.03,82.68 C445.05,82.68 442.30,82.07 439.80,80.84 C437.32,79.58 435.19,77.87 433.42,75.72 C433.42,75.72 433.12,81.84 433.12,81.84 Z" fill="#fff" stroke="rgb(255, 255, 255)" stroke-width="0.10" stroke-opacity="1.00" stroke-linejoin="miter"/>
<path d="M447.50,76.47 C450.11,76.47 452.43,75.80 454.48,74.46 C456.56,73.08 458.19,71.22 459.38,68.87 C460.59,66.52 461.20,63.86 461.20,60.89 C461.20,57.90 460.59,55.23 459.38,52.87 C458.19,50.50 456.56,48.62 454.48,47.25 C452.43,45.88 450.11,45.19 447.50,45.19 C445.02,45.19 442.77,45.82 440.74,47.08 C438.75,48.34 437.13,50.06 435.89,52.24 C434.67,54.43 433.98,56.91 433.80,59.68 C433.80,59.68 433.80,61.99 433.80,61.99 C433.98,64.76 434.67,67.23 435.89,69.42 C437.10,71.60 438.71,73.32 440.71,74.58 C442.73,75.84 444.99,76.47 447.50,76.47 Z" fill="#808080" stroke="rgb(128, 128, 128)" stroke-width="0.10" stroke-opacity="1.00" stroke-linejoin="miter"/>
<path d="M481.99,26.48 C481.99,26.48 538.28,26.48 538.28,26.48 C538.28,26.48 538.28,82.02 538.28,82.02 C538.28,82.02 481.99,82.02 481.99,82.02 C481.99,82.02 481.99,26.48 481.99,26.48 Z" fill="#fff" stroke="rgb(255, 255, 255)" stroke-width="0.10" stroke-opacity="1.00" stroke-linejoin="miter"/>
<path d="M488.31,32.19 C488.31,32.19 488.31,76.23 488.31,76.23 C488.31,76.23 531.97,76.23 531.97,76.23 C531.97,76.23 531.97,53.05 531.97,53.05 C531.97,53.05 531.97,32.19 531.97,32.19 C531.97,32.19 488.31,32.19 488.31,32.19 Z" fill="#808080" stroke="rgb(128, 128, 128)" stroke-width="0.10" stroke-opacity="1.00" stroke-linejoin="miter"/>
<path d="M597.14,30.67 C597.14,30.67 601.69,35.09 601.69,35.09 C599.31,48.33 594.63,58.78 587.66,66.45 C581.39,73.32 572.22,78.60 560.15,82.28 C560.15,82.28 556.89,77.32 556.89,77.32 C567.73,74.31 576.19,69.70 582.28,63.50 C589.13,56.50 593.67,47.26 595.89,35.78 C595.89,35.78 570.99,35.78 570.99,35.78 C566.50,42.73 561.07,48.36 554.70,52.69 C554.70,52.69 550.64,48.67 550.64,48.67 C555.34,45.54 559.27,42.08 562.45,38.28 C566.36,33.58 569.46,28.01 571.75,21.57 C571.75,21.57 577.17,23.14 577.17,23.14 C576.32,25.66 575.25,28.17 573.98,30.67 C573.98,30.67 597.14,30.67 597.14,30.67 Z" fill="#fff" stroke="rgb(255, 255, 255)" stroke-width="0.10" stroke-opacity="1.00" stroke-linejoin="miter"/>
<path d="M600.79,31.89 C599.26,27.88 597.32,24.19 594.95,20.81 C594.95,20.81 599.37,19.46 599.37,19.46 C601.82,22.81 603.79,26.46 605.27,30.40 C605.27,30.40 600.79,31.89 600.79,31.89 Z" fill="#fff" stroke="rgb(255, 255, 255)" stroke-width="0.10" stroke-opacity="1.00" stroke-linejoin="miter"/>
<path d="M609.96,29.91 C608.31,25.65 606.37,21.85 604.12,18.52 C604.12,18.52 608.46,17.16 608.46,17.16 C610.87,20.61 612.84,24.34 614.37,28.35 C614.37,28.35 609.96,29.91 609.96,29.91 Z" fill="#fff" stroke="rgb(255, 255, 255)" stroke-width="0.10" stroke-opacity="1.00" stroke-linejoin="miter"/>
<path d="M649.12,82.04 C649.12,82.04 649.12,44.66 649.12,44.66 C641.53,49.80 632.96,54.15 623.42,57.71 C623.42,57.71 620.23,52.62 620.23,52.62 C630.54,49.13 639.56,44.63 647.32,39.11 C655.24,33.45 662.04,27.27 667.72,20.55 C667.72,20.55 672.68,23.66 672.68,23.66 C667.42,29.55 661.50,35.13 654.92,40.39 C654.92,40.39 654.92,82.04 654.92,82.04 C654.92,82.04 649.12,82.04 649.12,82.04 Z" fill="#fff" stroke="rgb(255, 255, 255)" stroke-width="0.10" stroke-opacity="1.00" stroke-linejoin="miter"/>
<path d="M714.86,36.83 C707.92,33.67 700.54,31.15 692.72,29.25 C692.72,29.25 694.65,23.57 694.65,23.57 C704.00,25.81 711.43,28.32 716.97,31.11 C716.97,31.11 714.86,36.83 714.86,36.83 Z" fill="#fff" stroke="rgb(255, 255, 255)" stroke-width="0.10" stroke-opacity="1.00" stroke-linejoin="miter"/>
<path d="M693.30,74.36 C703.11,73.49 710.83,71.99 716.46,69.88 C731.04,64.42 740.23,51.85 744.02,32.17 C744.02,32.17 749.08,35.81 749.08,35.81 C746.82,46.49 743.30,54.96 738.52,61.22 C733.28,68.11 726.12,73.10 717.04,76.18 C711.43,78.07 704.02,79.53 694.80,80.55 C694.80,80.55 693.30,74.36 693.30,74.36 Z" fill="#fff" stroke="rgb(255, 255, 255)" stroke-width="0.10" stroke-opacity="1.00" stroke-linejoin="miter"/>
</g>
</svg>
