<?xml version="1.0" encoding="UTF-8" standalone="no"?>
<!DOCTYPE svg PUBLIC "-//W3C//DTD SVG 1.1//EN" "http://www.w3.org/Graphics/SVG/1.1/DTD/svg11.dtd">
<svg width="100.00" height="100.00" viewBox="0.00 0.00 100.00 100.00" xmlns="http://www.w3.org/2000/svg" xmlns:xlink="http://www.w3.org/1999/xlink">
<g stroke-linecap="round" id="CL_logo1">
<path d="M74.39,92.57 C74.39,92.57 25.96,92.68 25.96,92.68 C25.96,92.68 1.65,49.89 1.65,49.89 C1.65,49.89 25.76,6.97 25.76,6.97 C25.76,6.97 74.19,6.86 74.19,6.86 C74.19,6.86 98.50,49.65 98.50,49.65 C98.50,49.65 74.39,92.57 74.39,92.57 Z" fill="#f15a24" stroke="rgb(241, 90, 36)" stroke-width="1.00" stroke-opacity="1.00" stroke-linejoin="miter"/>
<path d="M49.52,65.71 C47.87,67.61 45.90,69.09 43.61,70.17 C41.31,71.25 38.81,71.79 36.10,71.79 C33.39,71.79 30.89,71.26 28.59,70.20 C26.32,69.14 24.34,67.65 22.65,65.74 C20.97,63.80 19.66,61.54 18.73,58.95 C17.80,56.34 17.33,53.50 17.33,50.43 C17.33,47.35 17.80,44.51 18.73,41.92 C19.66,39.31 20.97,37.04 22.65,35.13 C24.34,33.21 26.32,31.72 28.59,30.67 C30.89,29.61 33.39,29.08 36.10,29.08 C38.79,29.08 41.29,29.62 43.58,30.69 C45.88,31.75 47.85,33.23 49.50,35.13 C49.50,35.13 46.54,38.55 46.54,38.55 C45.26,36.93 43.72,35.66 41.92,34.74 C40.13,33.81 38.16,33.35 36.03,33.35 C33.96,33.35 32.05,33.78 30.30,34.64 C28.55,35.47 27.03,36.67 25.73,38.22 C24.45,39.75 23.45,41.56 22.72,43.64 C22.02,45.72 21.66,47.99 21.66,50.43 C21.66,52.90 22.02,55.17 22.72,57.25 C23.45,59.31 24.45,61.12 25.73,62.67 C27.03,64.20 28.55,65.40 30.30,66.26 C32.05,67.10 33.96,67.52 36.03,67.52 C38.16,67.52 40.13,67.06 41.92,66.15 C43.72,65.22 45.26,63.94 46.54,62.31 C46.54,62.31 49.52,65.71 49.52,65.71 Z" fill="#fff" stroke="rgb(255, 255, 255)" stroke-width="1.00" stroke-opacity="1.00" stroke-linejoin="miter"/>
<path d="M79.32,71.40 C79.32,71.40 56.32,71.40 56.32,71.40 C56.32,71.40 56.32,30.10 56.32,30.10 C56.32,30.10 60.72,30.10 60.72,30.10 C60.72,30.10 60.72,67.10 60.72,67.10 C60.72,67.10 79.32,67.10 79.32,67.10 C79.32,67.10 79.32,71.40 79.32,71.40 Z" fill="#fff" stroke="rgb(255, 255, 255)" stroke-width="1.00" stroke-opacity="1.00" stroke-linejoin="miter"/>
</g>
</svg>
