<?xml version="1.0" encoding="UTF-8" standalone="no"?>
<!DOCTYPE svg PUBLIC "-//W3C//DTD SVG 1.1//EN" "http://www.w3.org/Graphics/SVG/1.1/DTD/svg11.dtd">
<svg width="300.00" height="120.00" viewBox="0.00 0.00 300.00 120.00" xmlns="http://www.w3.org/2000/svg" xmlns:xlink="http://www.w3.org/1999/xlink">
<g stroke-linecap="round" id="manamoa2">
<path d="M36.79,3.25 C36.79,3.25 28.47,3.25 28.47,3.25 C28.78,4.55 28.86,6.99 28.86,8.37 C28.86,9.76 28.86,11.46 28.86,13.33 C27.77,13.33 26.61,13.33 25.52,13.33 C20.54,13.33 11.22,12.52 6.01,11.54 C6.01,11.54 6.09,18.94 6.09,18.94 C11.14,19.59 20.47,20.40 25.60,20.40 C26.68,20.40 27.77,20.40 28.78,20.40 C28.78,23.66 28.78,27.07 28.78,30.40 C27.46,30.40 26.14,30.40 24.82,30.40 C20.08,30.40 10.91,29.83 5.62,28.94 C5.62,28.94 5.70,36.58 5.70,36.58 C11.06,37.23 19.69,37.64 24.66,37.64 C26.14,37.64 27.54,37.64 28.94,37.64 C29.01,40.64 29.17,43.98 29.25,47.15 C27.38,46.98 25.52,46.82 23.50,46.82 C11.92,46.82 5.00,52.10 5.00,59.91 C5.00,68.04 11.30,72.59 22.95,72.59 C33.13,72.59 37.41,66.98 37.41,60.80 C37.41,59.66 37.33,58.28 37.25,56.57 C44.32,59.58 50.23,64.22 54.66,68.44 C54.66,68.44 59.16,61.21 59.16,61.21 C54.66,57.39 46.96,51.70 36.86,48.77 C36.71,45.11 36.47,41.21 36.32,37.47 C43.78,37.15 50.23,36.58 57.38,35.69 C57.38,35.69 57.46,28.13 57.46,28.13 C50.69,29.10 43.86,29.83 36.16,30.16 C36.16,27.56 36.16,23.74 36.16,20.08 C43.70,19.75 50.93,19.02 56.68,18.29 C56.68,18.29 56.68,10.81 56.68,10.81 C49.76,12.03 42.92,12.76 36.24,13.09 C36.32,11.30 36.32,9.76 36.40,8.78 C36.47,6.50 36.63,4.72 36.79,3.25 Z" fill="#fff" stroke="rgb(255, 255, 255)" stroke-width="0.10" stroke-opacity="1.00" stroke-linejoin="miter"/>
<path d="M12.31,59.42 C12.31,56.17 15.88,53.49 22.49,53.49 C24.90,53.49 27.30,53.73 29.56,54.22 C29.64,56.01 29.64,57.63 29.64,58.77 C29.64,63.97 26.29,65.35 21.94,65.35 C15.26,65.35 12.31,62.92 12.31,59.42 Z" fill="#294a6a" stroke="rgb(41, 74, 106)" stroke-width="0.10" stroke-opacity="1.00" stroke-linejoin="miter"/>
<path d="M104.93,3.33 C104.93,3.33 96.39,2.44 96.39,2.44 C96.23,6.75 95.30,11.79 94.13,16.34 C91.41,16.58 88.69,16.66 86.13,16.66 C83.02,16.66 79.29,16.50 76.26,16.18 C76.26,16.18 76.80,23.74 76.80,23.74 C79.91,23.90 83.18,23.98 86.13,23.98 C87.99,23.98 89.86,23.90 91.80,23.82 C88.31,33.00 81.86,45.52 75.48,53.49 C75.48,53.49 82.94,57.47 82.94,57.47 C89.24,48.53 96.00,34.38 99.81,22.92 C105.01,22.19 109.83,21.14 113.72,20.00 C113.72,20.00 113.48,12.52 113.48,12.52 C109.91,13.74 106.02,14.63 102.06,15.28 C103.22,10.73 104.31,6.18 104.93,3.33 Z" fill="#fff" stroke="rgb(255, 255, 255)" stroke-width="0.10" stroke-opacity="1.00" stroke-linejoin="miter"/>
<path d="M123.20,28.53 C123.20,28.53 115.58,28.53 115.58,28.53 C115.74,33.90 116.12,41.54 116.36,47.96 C114.26,47.63 112.08,47.39 109.75,47.39 C100.12,47.39 93.51,52.75 93.51,60.40 C93.51,68.85 100.82,72.91 109.83,72.91 C120.09,72.91 124.05,67.30 124.05,60.40 C124.05,59.75 124.05,58.93 124.05,58.12 C128.71,60.80 132.68,64.30 135.71,67.22 C135.71,67.22 139.83,60.31 139.83,60.31 C135.86,56.66 130.42,52.59 123.74,50.07 C123.51,45.44 123.27,40.72 123.20,38.04 C123.12,34.79 123.04,31.95 123.20,28.53 Z" fill="#fff" stroke="rgb(255, 255, 255)" stroke-width="0.10" stroke-opacity="1.00" stroke-linejoin="miter"/>
<path d="M100.74,59.66 C100.74,56.33 104.24,53.89 109.36,53.89 C111.93,53.89 114.34,54.30 116.59,54.95 C116.67,56.01 116.67,56.98 116.67,57.71 C116.67,62.10 114.73,65.52 108.82,65.52 C103.54,65.52 100.74,63.16 100.74,59.66 Z" fill="#294a6a" stroke="rgb(41, 74, 106)" stroke-width="0.10" stroke-opacity="1.00" stroke-linejoin="miter"/>
<path d="M137.80,31.62 C137.80,31.62 142.23,24.87 142.23,24.87 C138.35,21.95 129.18,16.58 123.58,13.98 C123.58,13.98 119.62,20.24 119.62,20.24 C124.91,22.76 133.53,27.88 137.80,31.62 Z" fill="#fff" stroke="rgb(255, 255, 255)" stroke-width="0.10" stroke-opacity="1.00" stroke-linejoin="miter"/>
<path d="M182.18,3.82 C182.18,3.82 173.47,3.33 173.47,3.33 C173.63,4.96 173.63,6.50 173.39,9.76 C173.24,11.87 173.01,14.47 172.62,17.40 C166.87,16.91 160.81,15.93 156.07,14.31 C156.07,14.31 155.68,21.79 155.68,21.79 C160.42,23.09 166.25,24.14 171.84,24.63 C171.30,28.94 170.75,33.49 170.21,37.80 C164.92,37.31 159.33,36.42 154.28,34.55 C154.28,34.55 153.89,42.35 153.89,42.35 C158.32,43.65 163.76,44.63 169.43,45.11 C169.12,48.77 168.89,51.86 168.89,53.97 C168.89,67.47 177.51,72.59 188.78,72.59 C204.87,72.59 215.28,64.62 215.28,52.43 C215.28,45.44 212.71,39.75 207.51,33.33 C207.51,33.33 198.88,35.20 198.88,35.20 C204.32,40.24 207.12,45.93 207.12,51.45 C207.12,59.09 200.28,64.38 188.94,64.38 C180.62,64.38 176.50,60.07 176.50,52.67 C176.50,50.97 176.66,48.45 176.89,45.60 C177.90,45.60 178.83,45.60 179.84,45.60 C184.90,45.60 189.64,45.28 194.38,44.79 C194.38,44.79 194.61,37.15 194.61,37.15 C189.32,37.88 183.73,38.12 178.68,38.12 C178.29,38.12 177.98,38.12 177.59,38.12 C178.06,33.90 178.60,29.26 179.14,25.04 C179.14,25.04 179.30,25.04 179.30,25.04 C185.67,25.04 190.10,24.71 194.92,24.22 C194.92,24.22 195.15,16.58 195.15,16.58 C191.03,17.23 185.83,17.64 180.08,17.64 C180.47,14.55 180.78,12.03 181.01,10.24 C181.32,8.29 181.63,6.34 182.18,3.82 Z" fill="#fff" stroke="rgb(255, 255, 255)" stroke-width="0.10" stroke-opacity="1.00" stroke-linejoin="miter"/>
<path d="M262.06,3.50 C262.06,3.50 254.05,3.25 254.05,3.25 C254.05,4.39 253.98,6.10 253.82,7.56 C253.67,9.19 253.43,10.97 253.28,13.01 C251.88,13.01 250.40,13.01 249.00,13.01 C245.04,13.01 238.20,12.44 235.48,11.95 C235.48,11.95 235.72,19.51 235.72,19.51 C239.06,19.67 245.12,20.08 248.77,20.08 C250.01,20.08 251.26,20.08 252.58,20.08 C252.27,23.57 251.96,27.39 251.80,31.13 C241.00,36.42 232.45,47.23 232.45,57.71 C232.45,65.19 236.88,68.60 242.24,68.60 C246.44,68.60 250.87,67.06 254.91,64.70 C255.30,66.17 255.69,67.47 256.07,68.69 C256.07,68.69 263.15,66.49 263.15,66.49 C262.52,64.46 261.83,62.35 261.28,60.07 C267.58,54.62 273.87,45.76 278.14,34.47 C284.59,36.58 288.01,41.62 288.01,47.31 C288.01,56.66 280.40,64.38 265.94,66.09 C265.94,66.09 270.14,72.83 270.14,72.83 C288.63,69.82 295.55,59.26 295.55,47.63 C295.55,38.45 289.64,31.05 280.24,28.13 C280.79,26.66 281.41,24.63 281.87,23.57 C281.87,23.57 274.26,21.62 274.26,21.62 C274.10,23.00 273.71,25.44 273.33,26.91 C272.63,26.83 271.85,26.83 271.07,26.83 C267.19,26.83 262.76,27.48 258.64,28.61 C258.87,25.61 259.11,22.60 259.34,19.83 C268.90,19.35 279.31,18.29 287.16,16.83 C287.16,16.83 287.08,9.27 287.08,9.27 C278.84,11.30 269.91,12.36 260.19,12.76 C260.50,10.81 260.82,8.94 261.13,7.40 C261.36,6.18 261.67,4.72 262.06,3.50 Z" fill="#fff" stroke="rgb(255, 255, 255)" stroke-width="0.10" stroke-opacity="1.00" stroke-linejoin="miter"/>
<path d="M258.41,37.55 C258.41,36.90 258.41,36.25 258.41,35.60 C261.83,34.30 266.02,33.33 270.76,33.33 C270.76,33.33 271.31,33.33 271.31,33.33 C268.27,41.29 264.08,47.23 259.57,51.86 C258.87,47.47 258.41,42.76 258.41,37.55 Z" fill="#294a6a" stroke="rgb(41, 74, 106)" stroke-width="0.10" stroke-opacity="1.00" stroke-linejoin="miter"/>
<path d="M239.76,56.25 C239.76,50.40 244.65,43.24 251.57,38.86 C251.57,44.87 252.27,51.45 253.28,57.23 C249.86,59.58 246.52,60.80 243.87,60.80 C241.08,60.80 239.76,59.26 239.76,56.25 Z" fill="#294a6a" stroke="rgb(41, 74, 106)" stroke-width="0.10" stroke-opacity="1.00" stroke-linejoin="miter"/>
<path d="M14.96,103.73 C15.96,103.73 16.87,103.65 17.70,103.49 C18.53,103.32 19.36,103.09 20.18,102.79 C20.18,102.79 20.18,105.31 20.18,105.31 C19.52,105.64 18.70,105.89 17.72,106.08 C16.74,106.27 15.69,106.37 14.56,106.37 C13.23,106.37 11.98,106.20 10.80,105.86 C9.64,105.52 8.62,104.97 7.75,104.21 C6.87,103.46 6.18,102.47 5.67,101.26 C5.18,100.03 4.93,98.55 4.93,96.83 C4.93,95.13 5.16,93.66 5.63,92.42 C6.10,91.17 6.73,90.13 7.51,89.29 C8.30,88.46 9.20,87.83 10.22,87.41 C11.23,86.99 12.30,86.78 13.41,86.78 C14.45,86.78 15.43,86.96 16.33,87.31 C17.24,87.65 18.03,88.19 18.70,88.94 C19.36,89.68 19.88,90.64 20.26,91.82 C20.65,92.99 20.85,94.40 20.85,96.05 C20.85,96.05 20.85,96.46 20.85,96.46 C20.85,96.46 20.84,96.81 20.83,97.20 C20.83,97.20 8.06,97.20 8.06,97.20 C8.06,98.39 8.24,99.40 8.59,100.24 C8.96,101.06 9.45,101.73 10.06,102.26 C10.69,102.77 11.42,103.14 12.25,103.37 C13.09,103.61 13.99,103.73 14.96,103.73 Z" fill="#fff" stroke="rgb(255, 255, 255)" stroke-width="0.10" stroke-opacity="1.00" stroke-linejoin="miter"/>
<path d="M13.29,89.39 C12.60,89.39 11.95,89.53 11.35,89.80 C10.76,90.07 10.25,90.45 9.80,90.92 C9.36,91.39 9.00,91.94 8.73,92.58 C8.45,93.21 8.28,93.88 8.22,94.60 C8.22,94.60 17.62,94.60 17.62,94.60 C17.62,93.87 17.52,93.19 17.33,92.56 C17.14,91.92 16.87,91.37 16.50,90.90 C16.14,90.43 15.69,90.06 15.15,89.80 C14.62,89.53 14.00,89.39 13.29,89.39 Z" fill="#294a6a" stroke="rgb(41, 74, 106)" stroke-width="0.10" stroke-opacity="1.00" stroke-linejoin="miter"/>
<path d="M25.37,94.70 C25.37,94.70 34.01,94.70 34.01,94.70 C34.01,94.70 34.01,97.54 34.01,97.54 C34.01,97.54 25.37,97.54 25.37,97.54 C25.37,97.54 25.37,94.70 25.37,94.70 Z" fill="#fff" stroke="rgb(255, 255, 255)" stroke-width="0.10" stroke-opacity="1.00" stroke-linejoin="miter"/>
<path d="M39.50,105.88 C39.50,105.88 39.50,77.52 39.50,77.52 C39.50,77.52 42.53,77.52 42.53,77.52 C42.53,77.52 42.53,105.88 42.53,105.88 C42.53,105.88 39.50,105.88 39.50,105.88 Z" fill="#fff" stroke="rgb(255, 255, 255)" stroke-width="0.10" stroke-opacity="1.00" stroke-linejoin="miter"/>
<path d="M57.55,103.73 C58.56,103.73 59.47,103.65 60.30,103.49 C61.13,103.32 61.96,103.09 62.78,102.79 C62.78,102.79 62.78,105.31 62.78,105.31 C62.12,105.64 61.29,105.89 60.31,106.08 C59.34,106.27 58.28,106.37 57.16,106.37 C55.83,106.37 54.58,106.20 53.40,105.86 C52.24,105.52 51.22,104.97 50.35,104.21 C49.47,103.46 48.78,102.47 48.27,101.26 C47.77,100.03 47.53,98.55 47.53,96.83 C47.53,95.13 47.76,93.66 48.23,92.42 C48.70,91.17 49.33,90.13 50.11,89.29 C50.89,88.46 51.80,87.83 52.81,87.41 C53.83,86.99 54.90,86.78 56.01,86.78 C57.05,86.78 58.02,86.96 58.92,87.31 C59.84,87.65 60.63,88.19 61.29,88.94 C61.96,89.68 62.48,90.64 62.86,91.82 C63.25,92.99 63.45,94.40 63.45,96.05 C63.45,96.05 63.45,96.46 63.45,96.46 C63.45,96.46 63.44,96.81 63.43,97.20 C63.43,97.20 50.66,97.20 50.66,97.20 C50.66,98.39 50.84,99.40 51.19,100.24 C51.55,101.06 52.04,101.73 52.66,102.26 C53.28,102.77 54.01,103.14 54.85,103.37 C55.69,103.61 56.59,103.73 57.55,103.73 Z" fill="#fff" stroke="rgb(255, 255, 255)" stroke-width="0.10" stroke-opacity="1.00" stroke-linejoin="miter"/>
<path d="M55.89,89.39 C55.20,89.39 54.55,89.53 53.95,89.80 C53.36,90.07 52.85,90.45 52.40,90.92 C51.96,91.39 51.60,91.94 51.33,92.58 C51.05,93.21 50.88,93.88 50.82,94.60 C50.82,94.60 60.22,94.60 60.22,94.60 C60.22,93.87 60.12,93.19 59.92,92.56 C59.74,91.92 59.47,91.37 59.10,90.90 C58.74,90.43 58.28,90.06 57.75,89.80 C57.21,89.53 56.59,89.39 55.89,89.39 Z" fill="#294a6a" stroke="rgb(41, 74, 106)" stroke-width="0.10" stroke-opacity="1.00" stroke-linejoin="miter"/>
<path d="M79.45,103.82 C79.45,103.82 79.37,103.82 79.37,103.82 C79.12,104.14 78.81,104.45 78.43,104.76 C78.05,105.06 77.62,105.34 77.12,105.59 C76.62,105.82 76.08,106.01 75.49,106.15 C74.91,106.30 74.28,106.37 73.61,106.37 C72.71,106.37 71.88,106.23 71.13,105.96 C70.38,105.70 69.74,105.31 69.19,104.80 C68.65,104.28 68.23,103.65 67.93,102.90 C67.63,102.16 67.48,101.32 67.48,100.38 C67.48,99.45 67.65,98.62 67.97,97.89 C68.31,97.16 68.78,96.54 69.38,96.03 C69.98,95.52 70.70,95.13 71.54,94.85 C72.39,94.58 73.32,94.44 74.34,94.44 C75.30,94.45 76.20,94.54 77.02,94.70 C77.84,94.85 78.57,95.05 79.21,95.28 C79.21,95.28 79.29,95.28 79.29,95.28 C79.29,95.28 79.29,93.99 79.29,93.99 C79.29,93.48 79.26,93.03 79.20,92.64 C79.13,92.25 79.02,91.90 78.86,91.60 C78.52,90.98 77.98,90.46 77.24,90.05 C76.49,89.64 75.49,89.43 74.22,89.43 C73.28,89.43 72.39,89.52 71.56,89.70 C70.73,89.87 69.91,90.11 69.09,90.43 C69.09,90.43 69.09,87.88 69.09,87.88 C69.40,87.72 69.77,87.58 70.19,87.45 C70.62,87.31 71.07,87.19 71.54,87.10 C72.01,86.99 72.50,86.91 73.03,86.86 C73.55,86.81 74.07,86.78 74.59,86.78 C76.47,86.78 78.01,87.12 79.20,87.78 C80.40,88.45 81.26,89.33 81.78,90.43 C81.98,90.84 82.11,91.31 82.19,91.82 C82.28,92.31 82.33,92.86 82.33,93.46 C82.33,93.46 82.33,105.88 82.33,105.88 C82.33,105.88 79.78,105.88 79.78,105.88 C79.78,105.88 79.45,103.82 79.45,103.82 Z" fill="#fff" stroke="rgb(255, 255, 255)" stroke-width="0.10" stroke-opacity="1.00" stroke-linejoin="miter"/>
<path d="M79.29,97.71 C78.73,97.56 78.07,97.41 77.30,97.26 C76.53,97.12 75.68,97.04 74.75,97.03 C73.46,97.03 72.44,97.30 71.71,97.85 C70.98,98.40 70.62,99.24 70.62,100.38 C70.62,100.95 70.71,101.45 70.89,101.88 C71.07,102.32 71.32,102.67 71.64,102.96 C71.96,103.24 72.34,103.44 72.77,103.59 C73.22,103.72 73.69,103.78 74.18,103.78 C74.83,103.78 75.44,103.69 76.00,103.51 C76.56,103.31 77.06,103.09 77.49,102.82 C77.94,102.56 78.31,102.30 78.61,102.04 C78.92,101.78 79.15,101.58 79.29,101.43 C79.29,101.43 79.29,97.71 79.29,97.71 Z" fill="#294a6a" stroke="rgb(41, 74, 106)" stroke-width="0.10" stroke-opacity="1.00" stroke-linejoin="miter"/>
<path d="M98.41,89.74 C98.41,89.74 98.17,89.74 98.17,89.74 C97.46,89.74 96.75,89.81 96.06,89.94 C95.37,90.07 94.71,90.27 94.10,90.54 C93.50,90.81 92.95,91.13 92.45,91.52 C91.97,91.92 91.57,92.38 91.24,92.91 C91.24,92.91 91.24,105.88 91.24,105.88 C91.24,105.88 88.20,105.88 88.20,105.88 C88.20,105.88 88.20,87.27 88.20,87.27 C88.20,87.27 90.55,87.27 90.55,87.27 C90.55,87.27 91.14,90.23 91.14,90.23 C91.14,90.23 91.20,90.23 91.20,90.23 C91.50,89.75 91.87,89.30 92.30,88.88 C92.74,88.46 93.24,88.10 93.79,87.78 C94.33,87.47 94.94,87.23 95.59,87.06 C96.24,86.88 96.93,86.78 97.64,86.78 C97.64,86.78 98.04,86.80 98.04,86.80 C98.04,86.80 98.30,86.81 98.41,86.82 C98.41,86.82 98.41,89.74 98.41,89.74 Z" fill="#fff" stroke="rgb(255, 255, 255)" stroke-width="0.10" stroke-opacity="1.00" stroke-linejoin="miter"/>
<path d="M104.58,89.86 C104.58,89.86 104.64,89.86 104.64,89.86 C104.98,89.43 105.35,89.03 105.75,88.66 C106.17,88.29 106.63,87.96 107.14,87.68 C107.65,87.40 108.21,87.18 108.81,87.02 C109.42,86.86 110.09,86.78 110.81,86.78 C111.65,86.78 112.45,86.90 113.20,87.14 C113.94,87.37 114.59,87.75 115.13,88.27 C115.68,88.79 116.11,89.48 116.43,90.33 C116.75,91.16 116.92,92.20 116.92,93.42 C116.92,93.42 116.92,105.88 116.92,105.88 C116.92,105.88 113.88,105.88 113.88,105.88 C113.88,105.88 113.88,93.91 113.88,93.91 C113.88,92.31 113.57,91.15 112.94,90.45 C112.33,89.74 111.43,89.39 110.24,89.39 C109.19,89.39 108.18,89.68 107.20,90.27 C106.22,90.84 105.38,91.64 104.68,92.66 C104.68,92.66 104.68,105.88 104.68,105.88 C104.68,105.88 101.64,105.88 101.64,105.88 C101.64,105.88 101.64,87.27 101.64,87.27 C101.64,87.27 103.99,87.27 103.99,87.27 C103.99,87.27 104.58,89.86 104.58,89.86 Z" fill="#fff" stroke="rgb(255, 255, 255)" stroke-width="0.10" stroke-opacity="1.00" stroke-linejoin="miter"/>
<path d="M122.99,105.88 C122.99,105.88 122.99,87.27 122.99,87.27 C122.99,87.27 126.02,87.27 126.02,87.27 C126.02,87.27 126.02,105.88 126.02,105.88 C126.02,105.88 122.99,105.88 122.99,105.88 Z" fill="#fff" stroke="rgb(255, 255, 255)" stroke-width="0.10" stroke-opacity="1.00" stroke-linejoin="miter"/>
<path d="M122.91,82.95 C122.91,82.95 122.91,79.56 122.91,79.56 C122.91,79.56 126.10,79.56 126.10,79.56 C126.10,79.56 126.10,82.95 126.10,82.95 C126.10,82.95 122.91,82.95 122.91,82.95 Z" fill="#fff" stroke="rgb(255, 255, 255)" stroke-width="0.10" stroke-opacity="1.00" stroke-linejoin="miter"/>
<path d="M135.03,89.86 C135.03,89.86 135.09,89.86 135.09,89.86 C135.43,89.43 135.80,89.03 136.21,88.66 C136.63,88.29 137.09,87.96 137.60,87.68 C138.11,87.40 138.66,87.18 139.26,87.02 C139.88,86.86 140.54,86.78 141.26,86.78 C142.11,86.78 142.91,86.90 143.65,87.14 C144.39,87.37 145.04,87.75 145.59,88.27 C146.14,88.79 146.57,89.48 146.88,90.33 C147.21,91.16 147.37,92.20 147.37,93.42 C147.37,93.42 147.37,105.88 147.37,105.88 C147.37,105.88 144.34,105.88 144.34,105.88 C144.34,105.88 144.34,93.91 144.34,93.91 C144.34,92.31 144.02,91.15 143.40,90.45 C142.78,89.74 141.88,89.39 140.69,89.39 C139.65,89.39 138.64,89.68 137.66,90.27 C136.68,90.84 135.84,91.64 135.13,92.66 C135.13,92.66 135.13,105.88 135.13,105.88 C135.13,105.88 132.09,105.88 132.09,105.88 C132.09,105.88 132.09,87.27 132.09,87.27 C132.09,87.27 134.45,87.27 134.45,87.27 C134.45,87.27 135.03,89.86 135.03,89.86 Z" fill="#fff" stroke="rgb(255, 255, 255)" stroke-width="0.10" stroke-opacity="1.00" stroke-linejoin="miter"/>
<path d="M160.45,86.78 C161.26,86.80 161.97,86.90 162.57,87.10 C163.17,87.29 163.69,87.54 164.12,87.84 C164.55,88.13 164.89,88.42 165.14,88.70 C165.40,88.99 165.57,89.22 165.66,89.39 C165.66,89.39 165.74,89.39 165.74,89.39 C165.74,89.39 166.37,87.27 166.37,87.27 C166.37,87.27 168.66,87.27 168.66,87.27 C168.66,87.27 168.66,106.98 168.66,106.98 C168.66,108.41 168.43,109.66 167.96,110.72 C167.49,111.79 166.83,112.68 165.98,113.38 C165.13,114.09 164.10,114.61 162.90,114.95 C161.71,115.30 160.40,115.48 158.95,115.48 C157.72,115.48 156.62,115.37 155.66,115.14 C154.69,114.93 153.93,114.68 153.38,114.38 C153.38,114.38 153.38,111.81 153.38,111.81 C153.83,112.00 154.26,112.15 154.68,112.26 C155.09,112.39 155.53,112.50 155.97,112.58 C156.41,112.67 156.86,112.73 157.32,112.77 C157.79,112.81 158.31,112.83 158.87,112.83 C161.05,112.83 162.72,112.32 163.88,111.30 C165.04,110.29 165.62,108.73 165.62,106.64 C165.62,106.64 165.62,104.16 165.62,104.16 C165.62,104.16 165.57,104.16 165.57,104.16 C164.90,104.89 164.12,105.44 163.24,105.82 C162.36,106.19 161.36,106.37 160.22,106.37 C159.70,106.37 159.14,106.31 158.54,106.19 C157.93,106.08 157.33,105.88 156.73,105.61 C156.13,105.32 155.56,104.95 155.01,104.49 C154.46,104.02 153.98,103.44 153.56,102.75 C153.14,102.04 152.80,101.21 152.54,100.26 C152.29,99.31 152.17,98.20 152.17,96.95 C152.17,95.21 152.40,93.71 152.87,92.44 C153.34,91.16 153.97,90.11 154.74,89.27 C155.51,88.44 156.39,87.82 157.38,87.41 C158.37,86.99 159.40,86.78 160.45,86.78 Z" fill="#fff" stroke="rgb(255, 255, 255)" stroke-width="0.10" stroke-opacity="1.00" stroke-linejoin="miter"/>
<path d="M155.34,96.69 C155.34,98.16 155.52,99.35 155.87,100.28 C156.22,101.21 156.67,101.93 157.20,102.45 C157.75,102.96 158.35,103.31 158.99,103.51 C159.63,103.69 160.23,103.78 160.81,103.78 C161.75,103.78 162.63,103.59 163.45,103.22 C164.27,102.84 165.00,102.32 165.62,101.67 C165.62,101.67 165.62,91.93 165.62,91.93 C165.62,91.93 165.22,91.43 164.92,91.13 C164.62,90.83 164.27,90.56 163.86,90.31 C163.47,90.05 163.02,89.83 162.51,89.66 C162.00,89.48 161.45,89.39 160.85,89.39 C159.95,89.39 159.15,89.57 158.46,89.94 C157.78,90.29 157.20,90.79 156.73,91.43 C156.28,92.07 155.93,92.84 155.70,93.74 C155.46,94.62 155.34,95.61 155.34,96.69 Z" fill="#294a6a" stroke="rgb(41, 74, 106)" stroke-width="0.10" stroke-opacity="1.00" stroke-linejoin="miter"/>
<path d="M184.52,92.23 C184.52,92.74 184.64,93.16 184.86,93.48 C185.08,93.81 185.37,94.08 185.74,94.29 C186.12,94.48 186.55,94.64 187.03,94.77 C187.53,94.91 188.04,95.02 188.56,95.13 C189.28,95.28 189.96,95.46 190.60,95.66 C191.24,95.84 191.82,96.12 192.36,96.50 C192.91,96.88 193.34,97.39 193.67,98.05 C194.01,98.69 194.18,99.52 194.18,100.55 C194.18,101.49 194.00,102.33 193.63,103.06 C193.27,103.78 192.75,104.38 192.08,104.88 C191.42,105.36 190.62,105.73 189.70,105.98 C188.77,106.24 187.75,106.37 186.64,106.37 C185.96,106.37 185.34,106.33 184.78,106.25 C184.23,106.19 183.74,106.10 183.31,105.98 C182.89,105.87 182.53,105.76 182.23,105.64 C181.93,105.53 181.68,105.42 181.49,105.31 C181.49,105.31 181.49,102.77 181.49,102.77 C182.27,103.08 183.05,103.33 183.82,103.51 C184.59,103.69 185.44,103.78 186.37,103.78 C187.10,103.78 187.76,103.72 188.34,103.59 C188.93,103.46 189.43,103.27 189.85,103.02 C190.28,102.76 190.61,102.44 190.83,102.06 C191.07,101.67 191.18,101.22 191.18,100.71 C191.18,100.19 191.08,99.76 190.87,99.42 C190.66,99.08 190.38,98.80 190.03,98.57 C189.68,98.35 189.26,98.17 188.79,98.03 C188.34,97.88 187.85,97.75 187.34,97.63 C186.68,97.49 186.00,97.32 185.31,97.13 C184.63,96.93 184.01,96.65 183.45,96.30 C182.89,95.95 182.43,95.47 182.08,94.87 C181.74,94.26 181.57,93.48 181.57,92.52 C181.57,91.54 181.74,90.69 182.10,89.98 C182.45,89.26 182.93,88.66 183.53,88.19 C184.13,87.72 184.82,87.37 185.62,87.14 C186.42,86.90 187.26,86.78 188.15,86.78 C189.18,86.78 190.13,86.88 191.01,87.08 C191.90,87.27 192.70,87.52 193.42,87.82 C193.42,87.82 193.42,90.41 193.42,90.41 C192.63,90.11 191.84,89.87 191.03,89.68 C190.23,89.49 189.41,89.38 188.56,89.37 C187.84,89.37 187.23,89.44 186.72,89.58 C186.21,89.73 185.79,89.93 185.46,90.19 C185.14,90.44 184.90,90.74 184.74,91.09 C184.60,91.43 184.52,91.81 184.52,92.23 Z" fill="#fff" stroke="rgb(255, 255, 255)" stroke-width="0.10" stroke-opacity="1.00" stroke-linejoin="miter"/>
<path d="M196.43,87.27 C196.43,87.27 199.55,87.27 199.55,87.27 C199.55,87.27 205.32,101.86 205.32,101.86 C205.32,101.86 205.44,101.86 205.44,101.86 C205.44,101.86 211.30,87.27 211.30,87.27 C211.30,87.27 214.49,87.27 214.49,87.27 C214.49,87.27 202.88,114.99 202.88,114.99 C202.88,114.99 199.86,114.99 199.86,114.99 C199.86,114.99 203.84,105.51 203.84,105.51 C203.84,105.51 196.43,87.27 196.43,87.27 Z" fill="#fff" stroke="rgb(255, 255, 255)" stroke-width="0.10" stroke-opacity="1.00" stroke-linejoin="miter"/>
<path d="M219.97,92.23 C219.97,92.74 220.08,93.16 220.31,93.48 C220.53,93.81 220.82,94.08 221.19,94.29 C221.57,94.48 222.00,94.64 222.48,94.77 C222.98,94.91 223.49,95.02 224.01,95.13 C224.73,95.28 225.41,95.46 226.05,95.66 C226.69,95.84 227.27,96.12 227.81,96.50 C228.36,96.88 228.79,97.39 229.12,98.05 C229.46,98.69 229.63,99.52 229.63,100.55 C229.63,101.49 229.45,102.33 229.08,103.06 C228.72,103.78 228.20,104.38 227.53,104.88 C226.87,105.36 226.07,105.73 225.14,105.98 C224.22,106.24 223.20,106.37 222.09,106.37 C221.41,106.37 220.79,106.33 220.23,106.25 C219.68,106.19 219.19,106.10 218.76,105.98 C218.34,105.87 217.98,105.76 217.68,105.64 C217.38,105.53 217.13,105.42 216.94,105.31 C216.94,105.31 216.94,102.77 216.94,102.77 C217.72,103.08 218.50,103.33 219.27,103.51 C220.04,103.69 220.89,103.78 221.82,103.78 C222.55,103.78 223.21,103.72 223.79,103.59 C224.38,103.46 224.88,103.27 225.30,103.02 C225.73,102.76 226.06,102.44 226.28,102.06 C226.52,101.67 226.63,101.22 226.63,100.71 C226.63,100.19 226.53,99.76 226.32,99.42 C226.11,99.08 225.83,98.80 225.48,98.57 C225.12,98.35 224.71,98.17 224.24,98.03 C223.79,97.88 223.30,97.75 222.79,97.63 C222.13,97.49 221.45,97.32 220.76,97.13 C220.08,96.93 219.46,96.65 218.90,96.30 C218.34,95.95 217.88,95.47 217.53,94.87 C217.19,94.26 217.02,93.48 217.02,92.52 C217.02,91.54 217.19,90.69 217.55,89.98 C217.90,89.26 218.37,88.66 218.98,88.19 C219.58,87.72 220.27,87.37 221.07,87.14 C221.87,86.90 222.71,86.78 223.60,86.78 C224.63,86.78 225.58,86.88 226.46,87.08 C227.34,87.27 228.15,87.52 228.87,87.82 C228.87,87.82 228.87,90.41 228.87,90.41 C228.08,90.11 227.29,89.87 226.48,89.68 C225.68,89.49 224.86,89.38 224.01,89.37 C223.29,89.37 222.68,89.44 222.17,89.58 C221.66,89.73 221.24,89.93 220.91,90.19 C220.59,90.44 220.35,90.74 220.19,91.09 C220.05,91.43 219.97,91.81 219.97,92.23 Z" fill="#fff" stroke="rgb(255, 255, 255)" stroke-width="0.10" stroke-opacity="1.00" stroke-linejoin="miter"/>
<path d="M244.04,105.92 C244.04,105.92 243.38,106.12 242.85,106.21 C242.31,106.30 241.67,106.36 240.93,106.37 C239.95,106.37 239.10,106.25 238.38,106.00 C237.67,105.76 237.07,105.42 236.58,104.98 C236.11,104.52 235.76,103.97 235.52,103.33 C235.29,102.69 235.17,101.98 235.17,101.20 C235.17,101.20 235.17,89.88 235.17,89.88 C235.17,89.88 231.59,89.88 231.59,89.88 C231.59,89.88 231.59,87.27 231.59,87.27 C231.59,87.27 235.17,87.27 235.17,87.27 C235.17,87.27 235.17,82.18 235.17,82.18 C235.17,82.18 238.21,82.18 238.21,82.18 C238.21,82.18 238.21,87.27 238.21,87.27 C238.21,87.27 243.77,87.27 243.77,87.27 C243.77,87.27 243.77,89.88 243.77,89.88 C243.77,89.88 238.21,89.88 238.21,89.88 C238.21,89.88 238.21,100.73 238.21,100.73 C238.21,101.16 238.27,101.56 238.38,101.92 C238.51,102.29 238.71,102.61 238.97,102.88 C239.25,103.14 239.59,103.35 240.01,103.51 C240.43,103.65 240.93,103.73 241.52,103.73 C241.92,103.73 242.35,103.69 242.79,103.63 C243.25,103.56 243.67,103.48 244.04,103.37 C244.04,103.37 244.04,105.92 244.04,105.92 Z" fill="#fff" stroke="rgb(255, 255, 255)" stroke-width="0.10" stroke-opacity="1.00" stroke-linejoin="miter"/>
<path d="M257.11,103.73 C258.11,103.73 259.03,103.65 259.85,103.49 C260.69,103.32 261.51,103.09 262.34,102.79 C262.34,102.79 262.34,105.31 262.34,105.31 C261.67,105.64 260.85,105.89 259.87,106.08 C258.89,106.27 257.84,106.37 256.72,106.37 C255.38,106.37 254.13,106.20 252.96,105.86 C251.79,105.52 250.78,104.97 249.90,104.21 C249.03,103.46 248.33,102.47 247.82,101.26 C247.33,100.03 247.08,98.55 247.08,96.83 C247.08,95.13 247.32,93.66 247.79,92.42 C248.26,91.17 248.88,90.13 249.67,89.29 C250.45,88.46 251.35,87.83 252.37,87.41 C253.39,86.99 254.45,86.78 255.56,86.78 C256.60,86.78 257.58,86.96 258.48,87.31 C259.39,87.65 260.18,88.19 260.85,88.94 C261.51,89.68 262.04,90.64 262.42,91.82 C262.81,92.99 263.00,94.40 263.00,96.05 C263.00,96.05 263.00,96.46 263.00,96.46 C263.00,96.46 263.00,96.81 262.98,97.20 C262.98,97.20 250.21,97.20 250.21,97.20 C250.21,98.39 250.39,99.40 250.74,100.24 C251.11,101.06 251.60,101.73 252.21,102.26 C252.84,102.77 253.57,103.14 254.40,103.37 C255.24,103.61 256.14,103.73 257.11,103.73 Z" fill="#fff" stroke="rgb(255, 255, 255)" stroke-width="0.10" stroke-opacity="1.00" stroke-linejoin="miter"/>
<path d="M255.44,89.39 C254.75,89.39 254.10,89.53 253.50,89.80 C252.92,90.07 252.40,90.45 251.96,90.92 C251.51,91.39 251.15,91.94 250.88,92.58 C250.61,93.21 250.44,93.88 250.37,94.60 C250.37,94.60 259.77,94.60 259.77,94.60 C259.77,93.87 259.67,93.19 259.48,92.56 C259.29,91.92 259.02,91.37 258.65,90.90 C258.29,90.43 257.84,90.06 257.30,89.80 C256.77,89.53 256.15,89.39 255.44,89.39 Z" fill="#294a6a" stroke="rgb(41, 74, 106)" stroke-width="0.10" stroke-opacity="1.00" stroke-linejoin="miter"/>
<path d="M283.31,105.88 C283.31,105.88 280.28,105.88 280.28,105.88 C280.28,105.88 280.28,93.91 280.28,93.91 C280.28,93.10 280.19,92.42 280.00,91.86 C279.83,91.28 279.58,90.81 279.24,90.45 C278.91,90.08 278.51,89.81 278.04,89.64 C277.59,89.47 277.07,89.39 276.50,89.39 C275.41,89.39 274.43,89.68 273.54,90.27 C272.65,90.84 271.86,91.64 271.15,92.66 C271.15,92.66 271.15,105.88 271.15,105.88 C271.15,105.88 268.11,105.88 268.11,105.88 C268.11,105.88 268.11,87.27 268.11,87.27 C268.11,87.27 270.46,87.27 270.46,87.27 C270.46,87.27 271.05,89.86 271.05,89.86 C271.05,89.86 271.11,89.86 271.11,89.86 C271.45,89.43 271.82,89.03 272.21,88.66 C272.61,88.29 273.06,87.96 273.54,87.68 C274.04,87.40 274.58,87.18 275.17,87.02 C275.75,86.86 276.39,86.78 277.08,86.78 C278.47,86.78 279.62,87.12 280.53,87.78 C281.45,88.45 282.15,89.36 282.65,90.51 C282.65,90.51 282.73,90.51 282.73,90.51 C283.55,89.34 284.49,88.44 285.55,87.78 C286.60,87.12 287.84,86.78 289.25,86.78 C289.90,86.78 290.59,86.88 291.32,87.06 C292.05,87.24 292.73,87.58 293.34,88.08 C293.95,88.56 294.46,89.23 294.87,90.09 C295.27,90.96 295.48,92.07 295.48,93.42 C295.48,93.42 295.48,105.88 295.48,105.88 C295.48,105.88 292.46,105.88 292.46,105.88 C292.46,105.88 292.46,93.91 292.46,93.91 C292.46,93.10 292.37,92.42 292.18,91.86 C292.02,91.28 291.76,90.81 291.42,90.45 C291.09,90.08 290.70,89.81 290.23,89.64 C289.77,89.47 289.25,89.39 288.68,89.39 C287.60,89.39 286.60,89.68 285.70,90.27 C284.81,90.84 284.02,91.64 283.31,92.66 C283.31,92.66 283.31,105.88 283.31,105.88 Z" fill="#fff" stroke="rgb(255, 255, 255)" stroke-width="0.10" stroke-opacity="1.00" stroke-linejoin="miter"/>
</g>
</svg>
