<svg width="250" height="250" viewBox="0 0 250 250" fill="none" xmlns="http://www.w3.org/2000/svg">
<path d="M150 174C150 187.255 138.807 198 125 198C111.193 198 100 187.255 100 174C100 160.745 111.193 150 125 150C138.807 150 150 160.745 150 174Z" fill="#F9C5AE"/>
<path d="M90 217C90 201.536 102.536 189 118 189H132C147.464 189 160 201.536 160 217V217C160 232.464 147.464 245 132 245H118C102.536 245 90 232.464 90 217V217Z" fill="#F9C5AE"/>
<path d="M90 216H160V245H90V216Z" fill="#F9C5AE"/>
<path d="M66.4235 155.804C64.5327 151.154 66.8102 145.955 71.5104 144.192V144.192C76.2105 142.429 81.5534 144.77 83.4442 149.42L106.163 205.297C108.054 209.948 105.777 215.146 101.076 216.909V216.909C96.3763 218.672 91.0334 216.332 89.1427 211.681L66.4235 155.804Z" fill="#F9C5AE"/>
<path d="M183.22 155.804C185.111 151.154 182.834 145.955 178.134 144.192V144.192C173.433 142.429 168.09 144.77 166.2 149.42L143.48 205.297C141.59 209.948 143.867 215.146 148.567 216.909V216.909C153.268 218.672 158.61 216.332 160.501 211.681L183.22 155.804Z" fill="#F9C5AE"/>
<path d="M22 20C22 18.8954 22.8954 18 24 18H226C227.105 18 228 18.8954 228 20V143C228 144.105 227.105 145 226 145H24C22.8954 145 22 144.105 22 143V20Z" fill="#FF843F"/>
<path d="M37 30H214V132H37V30Z" fill="white"/>
</svg>